<?xml version="1.0" encoding="UTF-8" standalone="no"?><svg xmlns="http://www.w3.org/2000/svg" xmlns:xlink="http://www.w3.org/1999/xlink" contentScriptType="application/ecmascript" contentStyleType="text/css" height="551px" preserveAspectRatio="none" style="width:1315px;height:551px;" version="1.1" viewBox="0 0 1315 551" width="1315px" zoomAndPan="magnify"><defs><filter height="300%" id="f1qwnfsrz8p49b" width="300%" x="-1" y="-1"><feGaussianBlur result="blurOut" stdDeviation="2.0"/><feColorMatrix in="blurOut" result="blurOut2" type="matrix" values="0 0 0 0 0 0 0 0 0 0 0 0 0 0 0 0 0 0 .4 0"/><feOffset dx="4.0" dy="4.0" in="blurOut2" result="blurOut3"/><feBlend in="SourceGraphic" in2="blurOut3" mode="normal"/></filter></defs><g><!--MD5=[57ab11106b6017d1c059bb8de6501622]
cluster mastermind.views--><polygon fill="#FFFFFF" filter="url(#f1qwnfsrz8p49b)" points="57.47,129,194.47,129,201.47,151.4883,1115.47,151.4883,1115.47,544,57.47,544,57.47,129" style="stroke: #000000; stroke-width: 1.5;"/><line style="stroke: #000000; stroke-width: 1.5;" x1="57.47" x2="201.47" y1="151.4883" y2="151.4883"/><text fill="#000000" font-family="sans-serif" font-size="14" font-weight="bold" lengthAdjust="spacingAndGlyphs" textLength="131" x="61.47" y="144.5352">mastermind.views</text><!--MD5=[f2bedc297083edee028363469990e0f1]
cluster mastermind.utils--><polygon fill="#FFFFFF" filter="url(#f1qwnfsrz8p49b)" points="540.47,6,669.47,6,676.47,28.4883,839.47,28.4883,839.47,105,540.47,105,540.47,6" style="stroke: #000000; stroke-width: 1.5;"/><line style="stroke: #000000; stroke-width: 1.5;" x1="540.47" x2="676.47" y1="28.4883" y2="28.4883"/><text fill="#000000" font-family="sans-serif" font-size="14" font-weight="bold" lengthAdjust="spacingAndGlyphs" textLength="123" x="544.47" y="21.5352">mastermind.utils</text><!--MD5=[8e0b9655f0966c29230933410523611d]
cluster mastermind.models--><polygon fill="#FFFFFF" filter="url(#f1qwnfsrz8p49b)" points="1139.47,380,1288.47,380,1295.47,402.4883,1298.47,402.4883,1298.47,479,1139.47,479,1139.47,380" style="stroke: #000000; stroke-width: 1.5;"/><line style="stroke: #000000; stroke-width: 1.5;" x1="1139.47" x2="1295.47" y1="402.4883" y2="402.4883"/><text fill="#000000" font-family="sans-serif" font-size="14" font-weight="bold" lengthAdjust="spacingAndGlyphs" textLength="143" x="1143.47" y="395.5352">mastermind.models</text><!--MD5=[daba0edef7c2b2303027ed075b2f09fd]
class mastermind.views.ColorView--><rect codeLine="4" fill="#FEFECE" filter="url(#f1qwnfsrz8p49b)" height="60.9551" id="mastermind.views.ColorView" style="stroke: #A80036; stroke-width: 1.5;" width="89" x="190.97" y="408.5"/><ellipse cx="205.97" cy="424.5" fill="#ADD1B2" rx="11" ry="11" style="stroke: #A80036; stroke-width: 1.0;"/><path d="M208.4431,430.6431 Q207.8621,430.9419 207.2229,431.0913 Q206.5838,431.2407 205.8782,431.2407 Q203.3714,431.2407 202.0515,429.5889 Q200.7317,427.937 200.7317,424.8159 Q200.7317,421.6865 202.0515,420.0347 Q203.3714,418.3828 205.8782,418.3828 Q206.5838,418.3828 207.2312,418.5322 Q207.8787,418.6816 208.4431,418.9805 L208.4431,421.7031 Q207.8123,421.1221 207.2188,420.8523 Q206.6253,420.5825 205.9944,420.5825 Q204.6497,420.5825 203.9649,421.6492 Q203.2801,422.7158 203.2801,424.8159 Q203.2801,426.9077 203.9649,427.9744 Q204.6497,429.041 205.9944,429.041 Q206.6253,429.041 207.2188,428.7712 Q207.8123,428.5015 208.4431,427.9204 Z "/><text fill="#000000" font-family="sans-serif" font-size="12" lengthAdjust="spacingAndGlyphs" textLength="57" x="219.97" y="429.0352">ColorView</text><line style="stroke: #A80036; stroke-width: 1.5;" x1="191.97" x2="278.97" y1="440.5" y2="440.5"/><line style="stroke: #A80036; stroke-width: 1.5;" x1="191.97" x2="278.97" y1="448.5" y2="448.5"/><polygon fill="#4177AF" points="201.97,455.5,197.97,461.5,205.97,461.5" style="stroke: #1963A0; stroke-width: 1.0;"/><text fill="#000000" font-family="sans-serif" font-size="11" lengthAdjust="spacingAndGlyphs" textLength="63" x="210.97" y="463.1348">write(): void</text><!--MD5=[86bd8337fa6b6b0346fe8333f5c8070e]
class mastermind.views.SecretCombinationView--><rect codeLine="9" fill="#FEFECE" filter="url(#f1qwnfsrz8p49b)" height="60.9551" id="mastermind.views.SecretCombinationView" style="stroke: #A80036; stroke-width: 1.5;" width="166" x="432.47" y="196.5"/><ellipse cx="447.47" cy="212.5" fill="#ADD1B2" rx="11" ry="11" style="stroke: #A80036; stroke-width: 1.0;"/><path d="M449.9431,218.6431 Q449.3621,218.9419 448.7229,219.0913 Q448.0838,219.2407 447.3782,219.2407 Q444.8714,219.2407 443.5515,217.5889 Q442.2317,215.937 442.2317,212.8159 Q442.2317,209.6865 443.5515,208.0347 Q444.8714,206.3828 447.3782,206.3828 Q448.0838,206.3828 448.7312,206.5322 Q449.3787,206.6816 449.9431,206.9805 L449.9431,209.7031 Q449.3123,209.1221 448.7188,208.8523 Q448.1253,208.5825 447.4944,208.5825 Q446.1497,208.5825 445.4649,209.6492 Q444.7801,210.7158 444.7801,212.8159 Q444.7801,214.9077 445.4649,215.9744 Q446.1497,217.041 447.4944,217.041 Q448.1253,217.041 448.7188,216.7712 Q449.3123,216.5015 449.9431,215.9204 Z "/><text fill="#000000" font-family="sans-serif" font-size="12" lengthAdjust="spacingAndGlyphs" textLength="134" x="461.47" y="217.0352">SecretCombinationView</text><line style="stroke: #A80036; stroke-width: 1.5;" x1="433.47" x2="597.47" y1="228.5" y2="228.5"/><line style="stroke: #A80036; stroke-width: 1.5;" x1="433.47" x2="597.47" y1="236.5" y2="236.5"/><ellipse cx="443.47" cy="247.5" fill="#84BE84" rx="3" ry="3" style="stroke: #038048; stroke-width: 1.0;"/><text fill="#000000" font-family="sans-serif" font-size="11" lengthAdjust="spacingAndGlyphs" textLength="87" x="452.47" y="251.1348">writeln(int): void</text><!--MD5=[716d7df7e3500a9f49a27aeed588132e]
class mastermind.views.MessageView--><rect codeLine="53" fill="#FEFECE" filter="url(#f1qwnfsrz8p49b)" height="177.5508" id="mastermind.views.MessageView" style="stroke: #A80036; stroke-width: 1.5;" width="167" x="431.97" y="350"/><ellipse cx="473.07" cy="366" fill="#EB937F" rx="11" ry="11" style="stroke: #A80036; stroke-width: 1.0;"/><path d="M476.6843,372.5 L468.9645,372.5 L468.9645,360.1069 L476.6843,360.1069 L476.6843,362.2651 L471.4133,362.2651 L471.4133,364.938 L476.1862,364.938 L476.1862,367.0962 L471.4133,367.0962 L471.4133,370.3418 L476.6843,370.3418 Z "/><text fill="#000000" font-family="sans-serif" font-size="12" lengthAdjust="spacingAndGlyphs" textLength="77" x="492.87" y="370.5352">MessageView</text><line style="stroke: #A80036; stroke-width: 1.5;" x1="432.97" x2="597.97" y1="382" y2="382"/><ellipse cx="442.97" cy="393" fill="none" rx="3" ry="3" style="stroke: #038048; stroke-width: 1.0;"/><text fill="#000000" font-family="sans-serif" font-size="11" lengthAdjust="spacingAndGlyphs" textLength="56" x="451.97" y="396.6348">ATTEMPTS</text><ellipse cx="442.97" cy="405.9551" fill="none" rx="3" ry="3" style="stroke: #038048; stroke-width: 1.0;"/><text fill="#000000" font-family="sans-serif" font-size="11" lengthAdjust="spacingAndGlyphs" textLength="40" x="451.97" y="409.5898">SECRET</text><ellipse cx="442.97" cy="418.9102" fill="none" rx="3" ry="3" style="stroke: #038048; stroke-width: 1.0;"/><text fill="#000000" font-family="sans-serif" font-size="11" lengthAdjust="spacingAndGlyphs" textLength="42" x="451.97" y="422.5449">RESUME</text><ellipse cx="442.97" cy="431.8652" fill="none" rx="3" ry="3" style="stroke: #038048; stroke-width: 1.0;"/><text fill="#000000" font-family="sans-serif" font-size="11" lengthAdjust="spacingAndGlyphs" textLength="40" x="451.97" y="435.5">RESULT</text><ellipse cx="442.97" cy="444.8203" fill="none" rx="3" ry="3" style="stroke: #038048; stroke-width: 1.0;"/><text fill="#000000" font-family="sans-serif" font-size="11" lengthAdjust="spacingAndGlyphs" textLength="141" x="451.97" y="448.4551">PROPOSED_COMBINATION</text><ellipse cx="442.97" cy="457.7754" fill="none" rx="3" ry="3" style="stroke: #038048; stroke-width: 1.0;"/><text fill="#000000" font-family="sans-serif" font-size="11" lengthAdjust="spacingAndGlyphs" textLength="29" x="451.97" y="461.4102">TITLE</text><ellipse cx="442.97" cy="470.7305" fill="none" rx="3" ry="3" style="stroke: #038048; stroke-width: 1.0;"/><text fill="#000000" font-family="sans-serif" font-size="11" lengthAdjust="spacingAndGlyphs" textLength="41" x="451.97" y="474.3652">WINNER</text><ellipse cx="442.97" cy="483.6855" fill="none" rx="3" ry="3" style="stroke: #038048; stroke-width: 1.0;"/><text fill="#000000" font-family="sans-serif" font-size="11" lengthAdjust="spacingAndGlyphs" textLength="43" x="451.97" y="487.3203">LOOSER</text><rect fill="none" height="6" style="stroke: #C82930; stroke-width: 1.0;" width="6" x="439.97" y="493.6406"/><text fill="#000000" font-family="sans-serif" font-size="11" lengthAdjust="spacingAndGlyphs" textLength="85" x="451.97" y="500.2754">message: String</text><line style="stroke: #A80036; stroke-width: 1.5;" x1="432.97" x2="597.97" y1="506.5957" y2="506.5957"/><rect fill="#F24D5C" height="6" style="stroke: #C82930; stroke-width: 1.0;" width="6" x="439.97" y="514.5957"/><text fill="#000000" font-family="sans-serif" font-size="11" lengthAdjust="spacingAndGlyphs" textLength="110" x="451.97" y="521.2305">MessageView(String)</text><!--MD5=[4ed27cd8fcf5b6ebdc6bc1a8178e2b74]
class mastermind.views.ProposedCombinationView--><rect codeLine="15" fill="#FEFECE" filter="url(#f1qwnfsrz8p49b)" height="60.9551" id="mastermind.views.ProposedCombinationView" style="stroke: #A80036; stroke-width: 1.5;" width="186" x="633.47" y="196.5"/><ellipse cx="648.47" cy="212.5" fill="#ADD1B2" rx="11" ry="11" style="stroke: #A80036; stroke-width: 1.0;"/><path d="M650.9431,218.6431 Q650.3621,218.9419 649.7229,219.0913 Q649.0838,219.2407 648.3782,219.2407 Q645.8714,219.2407 644.5515,217.5889 Q643.2317,215.937 643.2317,212.8159 Q643.2317,209.6865 644.5515,208.0347 Q645.8714,206.3828 648.3782,206.3828 Q649.0838,206.3828 649.7312,206.5322 Q650.3787,206.6816 650.9431,206.9805 L650.9431,209.7031 Q650.3123,209.1221 649.7188,208.8523 Q649.1253,208.5825 648.4944,208.5825 Q647.1497,208.5825 646.4649,209.6492 Q645.7801,210.7158 645.7801,212.8159 Q645.7801,214.9077 646.4649,215.9744 Q647.1497,217.041 648.4944,217.041 Q649.1253,217.041 649.7188,216.7712 Q650.3123,216.5015 650.9431,215.9204 Z "/><text fill="#000000" font-family="sans-serif" font-size="12" lengthAdjust="spacingAndGlyphs" textLength="154" x="662.47" y="217.0352">ProposedCombinationView</text><line style="stroke: #A80036; stroke-width: 1.5;" x1="634.47" x2="818.47" y1="228.5" y2="228.5"/><line style="stroke: #A80036; stroke-width: 1.5;" x1="634.47" x2="818.47" y1="236.5" y2="236.5"/><ellipse cx="644.47" cy="247.5" fill="#84BE84" rx="3" ry="3" style="stroke: #038048; stroke-width: 1.0;"/><text fill="#000000" font-family="sans-serif" font-size="11" lengthAdjust="spacingAndGlyphs" textLength="82" x="653.47" y="251.1348">write(list) : void</text><!--MD5=[98dd9f5185e3ab904e8d25c4d465541e]
class mastermind.views.ProposalView--><rect codeLine="22" fill="#FEFECE" filter="url(#f1qwnfsrz8p49b)" height="125.7305" id="mastermind.views.ProposalView" style="stroke: #A80036; stroke-width: 1.5;" width="155" x="241.97" y="164"/><ellipse cx="277.67" cy="180" fill="#ADD1B2" rx="11" ry="11" style="stroke: #A80036; stroke-width: 1.0;"/><path d="M280.1431,186.1431 Q279.5621,186.4419 278.9229,186.5913 Q278.2838,186.7407 277.5782,186.7407 Q275.0714,186.7407 273.7515,185.0889 Q272.4317,183.437 272.4317,180.3159 Q272.4317,177.1865 273.7515,175.5347 Q275.0714,173.8828 277.5782,173.8828 Q278.2838,173.8828 278.9312,174.0322 Q279.5787,174.1816 280.1431,174.4805 L280.1431,177.2031 Q279.5123,176.6221 278.9188,176.3523 Q278.3253,176.0825 277.6944,176.0825 Q276.3497,176.0825 275.6649,177.1492 Q274.9801,178.2158 274.9801,180.3159 Q274.9801,182.4077 275.6649,183.4744 Q276.3497,184.541 277.6944,184.541 Q278.3253,184.541 278.9188,184.2712 Q279.5123,184.0015 280.1431,183.4204 Z "/><text fill="#000000" font-family="sans-serif" font-size="12" lengthAdjust="spacingAndGlyphs" textLength="77" x="296.27" y="184.5352">ProposalView</text><line style="stroke: #A80036; stroke-width: 1.5;" x1="242.97" x2="395.97" y1="196" y2="196"/><line style="stroke: #A80036; stroke-width: 1.5;" x1="242.97" x2="395.97" y1="204" y2="204"/><ellipse cx="252.97" cy="215" fill="#84BE84" rx="3" ry="3" style="stroke: #038048; stroke-width: 1.0;"/><text fill="#000000" font-family="sans-serif" font-size="11" lengthAdjust="spacingAndGlyphs" textLength="129" x="261.97" y="218.6348">writeAttempts(int) : void</text><ellipse cx="252.97" cy="227.9551" fill="#84BE84" rx="3" ry="3" style="stroke: #038048; stroke-width: 1.0;"/><text fill="#000000" font-family="sans-serif" font-size="11" lengthAdjust="spacingAndGlyphs" textLength="103" x="261.97" y="231.5898">writeWinner() : void</text><ellipse cx="252.97" cy="240.9102" fill="#84BE84" rx="3" ry="3" style="stroke: #038048; stroke-width: 1.0;"/><text fill="#000000" font-family="sans-serif" font-size="11" lengthAdjust="spacingAndGlyphs" textLength="103" x="261.97" y="244.5449">writeLooser() : void</text><ellipse cx="252.97" cy="253.8652" fill="#84BE84" rx="3" ry="3" style="stroke: #038048; stroke-width: 1.0;"/><text fill="#000000" font-family="sans-serif" font-size="11" lengthAdjust="spacingAndGlyphs" textLength="89" x="261.97" y="257.5">writeTitle() : void</text><ellipse cx="252.97" cy="266.8203" fill="#84BE84" rx="3" ry="3" style="stroke: #038048; stroke-width: 1.0;"/><text fill="#000000" font-family="sans-serif" font-size="11" lengthAdjust="spacingAndGlyphs" textLength="120" x="261.97" y="270.4551">readProposal() : String</text><ellipse cx="252.97" cy="279.7754" fill="#84BE84" rx="3" ry="3" style="stroke: #038048; stroke-width: 1.0;"/><text fill="#000000" font-family="sans-serif" font-size="11" lengthAdjust="spacingAndGlyphs" textLength="117" x="261.97" y="283.4102">writeLineBreak() : void</text><!--MD5=[56aa617717da0844c5255d733a5f8dfa]
class mastermind.views.ResultView--><rect codeLine="33" fill="#FEFECE" filter="url(#f1qwnfsrz8p49b)" height="60.9551" id="mastermind.views.ResultView" style="stroke: #A80036; stroke-width: 1.5;" width="133" x="73.97" y="196.5"/><ellipse cx="106.52" cy="212.5" fill="#ADD1B2" rx="11" ry="11" style="stroke: #A80036; stroke-width: 1.0;"/><path d="M108.9931,218.6431 Q108.4121,218.9419 107.7729,219.0913 Q107.1338,219.2407 106.4282,219.2407 Q103.9214,219.2407 102.6015,217.5889 Q101.2817,215.937 101.2817,212.8159 Q101.2817,209.6865 102.6015,208.0347 Q103.9214,206.3828 106.4282,206.3828 Q107.1338,206.3828 107.7812,206.5322 Q108.4287,206.6816 108.9931,206.9805 L108.9931,209.7031 Q108.3623,209.1221 107.7688,208.8523 Q107.1753,208.5825 106.5444,208.5825 Q105.1997,208.5825 104.5149,209.6492 Q103.8301,210.7158 103.8301,212.8159 Q103.8301,214.9077 104.5149,215.9744 Q105.1997,217.041 106.5444,217.041 Q107.1753,217.041 107.7688,216.7712 Q108.3623,216.5015 108.9931,215.9204 Z "/><text fill="#000000" font-family="sans-serif" font-size="12" lengthAdjust="spacingAndGlyphs" textLength="62" x="124.42" y="217.0352">ResultView</text><line style="stroke: #A80036; stroke-width: 1.5;" x1="74.97" x2="205.97" y1="228.5" y2="228.5"/><line style="stroke: #A80036; stroke-width: 1.5;" x1="74.97" x2="205.97" y1="236.5" y2="236.5"/><ellipse cx="84.97" cy="247.5" fill="#84BE84" rx="3" ry="3" style="stroke: #038048; stroke-width: 1.0;"/><text fill="#000000" font-family="sans-serif" font-size="11" lengthAdjust="spacingAndGlyphs" textLength="107" x="93.97" y="251.1348">writeln(int, int): void</text><!--MD5=[ec4aad91981170f30f8e0579b5e2d84f]
class mastermind.views.ResumeView--><rect codeLine="39" fill="#FEFECE" filter="url(#f1qwnfsrz8p49b)" height="60.9551" id="mastermind.views.ResumeView" style="stroke: #A80036; stroke-width: 1.5;" width="110" x="989.47" y="196.5"/><ellipse cx="1006.72" cy="212.5" fill="#ADD1B2" rx="11" ry="11" style="stroke: #A80036; stroke-width: 1.0;"/><path d="M1009.1931,218.6431 Q1008.6121,218.9419 1007.9729,219.0913 Q1007.3338,219.2407 1006.6282,219.2407 Q1004.1214,219.2407 1002.8015,217.5889 Q1001.4817,215.937 1001.4817,212.8159 Q1001.4817,209.6865 1002.8015,208.0347 Q1004.1214,206.3828 1006.6282,206.3828 Q1007.3338,206.3828 1007.9812,206.5322 Q1008.6287,206.6816 1009.1931,206.9805 L1009.1931,209.7031 Q1008.5623,209.1221 1007.9688,208.8523 Q1007.3753,208.5825 1006.7444,208.5825 Q1005.3997,208.5825 1004.7149,209.6492 Q1004.0301,210.7158 1004.0301,212.8159 Q1004.0301,214.9077 1004.7149,215.9744 Q1005.3997,217.041 1006.7444,217.041 Q1007.3753,217.041 1007.9688,216.7712 Q1008.5623,216.5015 1009.1931,215.9204 Z "/><text fill="#000000" font-family="sans-serif" font-size="12" lengthAdjust="spacingAndGlyphs" textLength="73" x="1021.22" y="217.0352">ResumeView</text><line style="stroke: #A80036; stroke-width: 1.5;" x1="990.47" x2="1098.47" y1="228.5" y2="228.5"/><line style="stroke: #A80036; stroke-width: 1.5;" x1="990.47" x2="1098.47" y1="236.5" y2="236.5"/><ellipse cx="1000.47" cy="247.5" fill="#84BE84" rx="3" ry="3" style="stroke: #038048; stroke-width: 1.0;"/><text fill="#000000" font-family="sans-serif" font-size="11" lengthAdjust="spacingAndGlyphs" textLength="84" x="1009.47" y="251.1348">read() : boolean</text><!--MD5=[159b299c59daed45f31e591a5c9e649b]
class mastermind.views.StartView--><rect codeLine="46" fill="#FEFECE" filter="url(#f1qwnfsrz8p49b)" height="60.9551" id="mastermind.views.StartView" style="stroke: #A80036; stroke-width: 1.5;" width="99" x="854.97" y="196.5"/><ellipse cx="876.27" cy="212.5" fill="#ADD1B2" rx="11" ry="11" style="stroke: #A80036; stroke-width: 1.0;"/><path d="M878.7431,218.6431 Q878.1621,218.9419 877.5229,219.0913 Q876.8838,219.2407 876.1782,219.2407 Q873.6714,219.2407 872.3515,217.5889 Q871.0317,215.937 871.0317,212.8159 Q871.0317,209.6865 872.3515,208.0347 Q873.6714,206.3828 876.1782,206.3828 Q876.8838,206.3828 877.5312,206.5322 Q878.1787,206.6816 878.7431,206.9805 L878.7431,209.7031 Q878.1123,209.1221 877.5188,208.8523 Q876.9253,208.5825 876.2944,208.5825 Q874.9497,208.5825 874.2649,209.6492 Q873.5801,210.7158 873.5801,212.8159 Q873.5801,214.9077 874.2649,215.9744 Q874.9497,217.041 876.2944,217.041 Q876.9253,217.041 877.5188,216.7712 Q878.1123,216.5015 878.7431,215.9204 Z "/><text fill="#000000" font-family="sans-serif" font-size="12" lengthAdjust="spacingAndGlyphs" textLength="53" x="891.67" y="217.0352">StartView</text><line style="stroke: #A80036; stroke-width: 1.5;" x1="855.97" x2="952.97" y1="228.5" y2="228.5"/><line style="stroke: #A80036; stroke-width: 1.5;" x1="855.97" x2="952.97" y1="236.5" y2="236.5"/><ellipse cx="865.97" cy="247.5" fill="#84BE84" rx="3" ry="3" style="stroke: #038048; stroke-width: 1.0;"/><text fill="#000000" font-family="sans-serif" font-size="11" lengthAdjust="spacingAndGlyphs" textLength="73" x="874.97" y="251.1348">writeln(): void</text><!--MD5=[418484cb0ecde680b0da58aa805d4175]
class mastermind.utils.WithConsoleView--><rect fill="#FEFECE" filter="url(#f1qwnfsrz8p49b)" height="48" id="mastermind.utils.WithConsoleView" style="stroke: #A80036; stroke-width: 1.5;" width="128" x="556.47" y="41"/><ellipse cx="571.47" cy="57" fill="#ADD1B2" rx="11" ry="11" style="stroke: #A80036; stroke-width: 1.0;"/><path d="M573.9431,63.1431 Q573.3621,63.4419 572.7229,63.5913 Q572.0838,63.7407 571.3782,63.7407 Q568.8714,63.7407 567.5515,62.0889 Q566.2317,60.437 566.2317,57.3159 Q566.2317,54.1865 567.5515,52.5347 Q568.8714,50.8828 571.3782,50.8828 Q572.0838,50.8828 572.7312,51.0322 Q573.3787,51.1816 573.9431,51.4805 L573.9431,54.2031 Q573.3123,53.6221 572.7188,53.3523 Q572.1253,53.0825 571.4944,53.0825 Q570.1497,53.0825 569.4649,54.1492 Q568.7801,55.2158 568.7801,57.3159 Q568.7801,59.4077 569.4649,60.4744 Q570.1497,61.541 571.4944,61.541 Q572.1253,61.541 572.7188,61.2712 Q573.3123,61.0015 573.9431,60.4204 Z "/><text fill="#000000" font-family="sans-serif" font-size="12" lengthAdjust="spacingAndGlyphs" textLength="96" x="585.47" y="61.5352">WithConsoleView</text><line style="stroke: #A80036; stroke-width: 1.5;" x1="557.47" x2="683.47" y1="73" y2="73"/><line style="stroke: #A80036; stroke-width: 1.5;" x1="557.47" x2="683.47" y1="81" y2="81"/><!--MD5=[8fefce232ba7ae99aa926d324ff560e5]
class mastermind.utils.YesNoDialog--><rect fill="#FEFECE" filter="url(#f1qwnfsrz8p49b)" height="48" id="mastermind.utils.YesNoDialog" style="stroke: #A80036; stroke-width: 1.5;" width="104" x="719.47" y="41"/><ellipse cx="734.47" cy="57" fill="#ADD1B2" rx="11" ry="11" style="stroke: #A80036; stroke-width: 1.0;"/><path d="M736.9431,63.1431 Q736.3621,63.4419 735.7229,63.5913 Q735.0838,63.7407 734.3782,63.7407 Q731.8714,63.7407 730.5515,62.0889 Q729.2317,60.437 729.2317,57.3159 Q729.2317,54.1865 730.5515,52.5347 Q731.8714,50.8828 734.3782,50.8828 Q735.0838,50.8828 735.7312,51.0322 Q736.3787,51.1816 736.9431,51.4805 L736.9431,54.2031 Q736.3123,53.6221 735.7188,53.3523 Q735.1253,53.0825 734.4944,53.0825 Q733.1497,53.0825 732.4649,54.1492 Q731.7801,55.2158 731.7801,57.3159 Q731.7801,59.4077 732.4649,60.4744 Q733.1497,61.541 734.4944,61.541 Q735.1253,61.541 735.7188,61.2712 Q736.3123,61.0015 736.9431,60.4204 Z "/><text fill="#000000" font-family="sans-serif" font-size="12" lengthAdjust="spacingAndGlyphs" textLength="72" x="748.47" y="61.5352">YesNoDialog</text><line style="stroke: #A80036; stroke-width: 1.5;" x1="720.47" x2="822.47" y1="73" y2="73"/><line style="stroke: #A80036; stroke-width: 1.5;" x1="720.47" x2="822.47" y1="81" y2="81"/><!--MD5=[d5dd2c70e89db13b97018ba79382d349]
class mastermind.models.Color--><rect fill="#FEFECE" filter="url(#f1qwnfsrz8p49b)" height="48" id="mastermind.models.Color" style="stroke: #A80036; stroke-width: 1.5;" width="62" x="1155.47" y="415"/><ellipse cx="1170.47" cy="431" fill="#ADD1B2" rx="11" ry="11" style="stroke: #A80036; stroke-width: 1.0;"/><path d="M1172.9431,437.1431 Q1172.3621,437.4419 1171.7229,437.5913 Q1171.0838,437.7407 1170.3782,437.7407 Q1167.8714,437.7407 1166.5515,436.0889 Q1165.2317,434.437 1165.2317,431.3159 Q1165.2317,428.1865 1166.5515,426.5347 Q1167.8714,424.8828 1170.3782,424.8828 Q1171.0838,424.8828 1171.7312,425.0322 Q1172.3787,425.1816 1172.9431,425.4805 L1172.9431,428.2031 Q1172.3123,427.6221 1171.7188,427.3523 Q1171.1253,427.0825 1170.4944,427.0825 Q1169.1497,427.0825 1168.4649,428.1492 Q1167.7801,429.2158 1167.7801,431.3159 Q1167.7801,433.4077 1168.4649,434.4744 Q1169.1497,435.541 1170.4944,435.541 Q1171.1253,435.541 1171.7188,435.2712 Q1172.3123,435.0015 1172.9431,434.4204 Z "/><text fill="#000000" font-family="sans-serif" font-size="12" lengthAdjust="spacingAndGlyphs" textLength="30" x="1184.47" y="435.5352">Color</text><line style="stroke: #A80036; stroke-width: 1.5;" x1="1156.47" x2="1216.47" y1="447" y2="447"/><line style="stroke: #A80036; stroke-width: 1.5;" x1="1156.47" x2="1216.47" y1="455" y2="455"/><!--MD5=[64150de8a63d9b8a1733f105f34374f1]
reverse link mastermind.utils.WithConsoleView to mastermind.views.ColorView--><path codeLine="7" d="M536.27,68.1 C386.87,72.7 88.06,86.18 56.47,121 C6,176.63 24.48,222.04 56.47,290 C84.03,348.56 147.39,391.86 190.83,416.02 " fill="none" id="mastermind.utils.WithConsoleView-backto-mastermind.views.ColorView" style="stroke: #A80036; stroke-width: 1.0;"/><polygon fill="none" points="536.12,61.1,556.32,67.51,536.54,75.09,536.12,61.1" style="stroke: #A80036; stroke-width: 1.0;"/><!--MD5=[0ebf58c5e0891c96edf0a2d055d9da39]
reverse link mastermind.utils.WithConsoleView to mastermind.views.SecretCombinationView--><path codeLine="12" d="M594.07,106.23 C575.66,134.28 551.51,171.08 534.86,196.45 " fill="none" id="mastermind.utils.WithConsoleView-backto-mastermind.views.SecretCombinationView" style="stroke: #A80036; stroke-width: 1.0;"/><polygon fill="none" points="588.38,102.15,605.2,89.27,600.08,109.83,588.38,102.15" style="stroke: #A80036; stroke-width: 1.0;"/><!--MD5=[ce8c4249f73fb0657477cb05d0776e2d]
link mastermind.views.SecretCombinationView to mastermind.views.MessageView--><path codeLine="13" d="M515.47,257.64 C515.47,280.5 515.47,313.43 515.47,344.91 " fill="none" id="mastermind.views.SecretCombinationView-to-mastermind.views.MessageView" style="stroke: #A80036; stroke-width: 1.0; stroke-dasharray: 7.0,7.0;"/><polygon fill="#A80036" points="515.47,349.95,519.47,340.95,515.47,344.95,511.47,340.95,515.47,349.95" style="stroke: #A80036; stroke-width: 1.0;"/><!--MD5=[3d77a152e5198d93efba24431aa5f590]
reverse link mastermind.utils.WithConsoleView to mastermind.views.ProposedCombinationView--><path codeLine="18" d="M647.12,106.23 C665.7,134.28 690.08,171.08 706.89,196.45 " fill="none" id="mastermind.utils.WithConsoleView-backto-mastermind.views.ProposedCombinationView" style="stroke: #A80036; stroke-width: 1.0;"/><polygon fill="none" points="641.09,109.8,635.88,89.27,652.76,102.07,641.09,109.8" style="stroke: #A80036; stroke-width: 1.0;"/><!--MD5=[3a12498e22f98d970310e61ba9a2b5b2]
link mastermind.views.ProposedCombinationView to mastermind.views.ColorView--><path codeLine="19" d="M679.46,257.57 C660.4,268.74 637.86,280.93 616.47,290 C530.24,326.56 501.69,315.89 414.47,350 C369.41,367.62 320.21,392.23 284.82,410.94 " fill="none" id="mastermind.views.ProposedCombinationView-to-mastermind.views.ColorView" style="stroke: #A80036; stroke-width: 1.0; stroke-dasharray: 7.0,7.0;"/><polygon fill="#A80036" points="280.13,413.42,289.9549,412.7339,284.5465,411.076,286.2045,405.6675,280.13,413.42" style="stroke: #A80036; stroke-width: 1.0;"/><!--MD5=[bf9720d0445e959ea036caf7f09183d5]
link mastermind.views.ProposedCombinationView to mastermind.models.Color--><path codeLine="20" d="M772.24,257.6 C791.71,269.12 815.06,281.54 837.47,290 C955.72,334.64 1007.86,283.69 1115.47,350 C1139.4,364.74 1158.77,390.52 1171.19,410.38 " fill="none" id="mastermind.views.ProposedCombinationView-to-mastermind.models.Color" style="stroke: #A80036; stroke-width: 1.0; stroke-dasharray: 7.0,7.0;"/><polygon fill="#A80036" points="1173.89,414.77,1172.5889,405.0075,1171.2735,410.5093,1165.7717,409.1939,1173.89,414.77" style="stroke: #A80036; stroke-width: 1.0;"/><!--MD5=[7086a17abe4852d9000e51e250941916]
reverse link mastermind.utils.WithConsoleView to mastermind.views.ProposalView--><path codeLine="30" d="M536.34,77.44 C497.49,85.43 451.99,98.8 415.47,121 C397.11,132.16 380.14,147.86 365.73,163.73 " fill="none" id="mastermind.utils.WithConsoleView-backto-mastermind.views.ProposalView" style="stroke: #A80036; stroke-width: 1.0;"/><polygon fill="none" points="535.31,70.51,556.26,73.69,537.9,84.27,535.31,70.51" style="stroke: #A80036; stroke-width: 1.0;"/><!--MD5=[08a105026e923a8b09966a1d0d4eca6a]
link mastermind.views.ProposalView to mastermind.views.MessageView--><path codeLine="31" d="M377.48,290.15 C393.88,307.73 412.09,327.24 429.76,346.17 " fill="none" id="mastermind.views.ProposalView-to-mastermind.views.MessageView" style="stroke: #A80036; stroke-width: 1.0; stroke-dasharray: 7.0,7.0;"/><polygon fill="#A80036" points="433.28,349.94,430.0621,340.6317,429.8679,346.2852,424.2144,346.091,433.28,349.94" style="stroke: #A80036; stroke-width: 1.0;"/><!--MD5=[07b3d69d84815e4b466391e57b2904e8]
reverse link mastermind.utils.WithConsoleView to mastermind.views.ResultView--><path codeLine="36" d="M536.01,70.43 C435.9,76.94 276.14,91.62 224.47,121 C193.83,138.42 170.11,171.82 155.81,196.29 " fill="none" id="mastermind.utils.WithConsoleView-backto-mastermind.views.ResultView" style="stroke: #A80036; stroke-width: 1.0;"/><polygon fill="none" points="535.7,63.44,556.1,69.18,536.57,77.41,535.7,63.44" style="stroke: #A80036; stroke-width: 1.0;"/><!--MD5=[3f914b3e8f203cde9ef4aaa6970ff031]
link mastermind.views.ResultView to mastermind.views.MessageView--><path codeLine="37" d="M178.01,257.77 C192.21,268.47 208.74,280.29 224.47,290 C290.27,330.63 368.6,369.99 427.4,397.9 " fill="none" id="mastermind.views.ResultView-to-mastermind.views.MessageView" style="stroke: #A80036; stroke-width: 1.0; stroke-dasharray: 7.0,7.0;"/><polygon fill="#A80036" points="431.96,400.06,425.5357,392.5949,427.4404,397.9214,422.1139,399.8262,431.96,400.06" style="stroke: #A80036; stroke-width: 1.0;"/><!--MD5=[06348ad2528dd1d082a0e8412eb76034]
reverse link mastermind.utils.WithConsoleView to mastermind.views.ResumeView--><path codeLine="42" d="M669.92,99.44 C680.28,104.95 691.42,109.88 702.47,113 C731.25,121.12 945.18,106.76 971.47,121 C1001.14,137.08 1021.31,171.08 1032.81,196.05 " fill="none" id="mastermind.utils.WithConsoleView-backto-mastermind.views.ResumeView" style="stroke: #A80036; stroke-width: 1.0;"/><polygon fill="none" points="666.06,105.29,652.33,89.14,673.13,93.2,666.06,105.29" style="stroke: #A80036; stroke-width: 1.0;"/><!--MD5=[e928fb1616fdb969e51b3f6fad489197]
link mastermind.views.ResumeView to mastermind.utils.YesNoDialog--><path codeLine="43" d="M1031.02,196.32 C1018.77,172.54 998.47,140.11 971.47,121 C929.24,91.12 871.42,77.45 828.81,71.21 " fill="none" id="mastermind.views.ResumeView-to-mastermind.utils.YesNoDialog" style="stroke: #A80036; stroke-width: 1.0; stroke-dasharray: 7.0,7.0;"/><polygon fill="#A80036" points="823.69,70.49,832.0402,75.7125,828.6406,71.1911,833.162,67.7915,823.69,70.49" style="stroke: #A80036; stroke-width: 1.0;"/><!--MD5=[2344d815b5d16f10252d17b4c4c7824e]
link mastermind.views.ResumeView to mastermind.views.MessageView--><path codeLine="44" d="M1014.86,257.75 C1002.31,269.08 987.01,281.33 971.47,290 C852.58,356.34 699.45,398.33 604.38,420 " fill="none" id="mastermind.views.ResumeView-to-mastermind.views.MessageView" style="stroke: #A80036; stroke-width: 1.0; stroke-dasharray: 7.0,7.0;"/><polygon fill="#A80036" points="599.33,421.14,608.99,423.0594,604.2072,420.0387,607.2279,415.2559,599.33,421.14" style="stroke: #A80036; stroke-width: 1.0;"/><!--MD5=[47d71c9e8af2ee21765ae73c4e80eff9]
reverse link mastermind.utils.WithConsoleView to mastermind.views.StartView--><path codeLine="49" d="M670.27,99.33 C680.54,104.81 691.56,109.75 702.47,113 C731.27,121.59 811.56,105.78 837.47,121 C865.81,137.64 884.12,171.54 894.31,196.33 " fill="none" id="mastermind.utils.WithConsoleView-backto-mastermind.views.StartView" style="stroke: #A80036; stroke-width: 1.0;"/><polygon fill="none" points="666.55,105.26,652.79,89.14,673.6,93.16,666.55,105.26" style="stroke: #A80036; stroke-width: 1.0;"/><!--MD5=[db061c34674d61c574fa429272c8ff9e]
link mastermind.views.StartView to mastermind.views.MessageView--><path codeLine="50" d="M876.48,257.62 C865.07,268.67 851.31,280.76 837.47,290 C763.77,339.21 671.06,379.9 604.07,406.08 " fill="none" id="mastermind.views.StartView-to-mastermind.views.MessageView" style="stroke: #A80036; stroke-width: 1.0; stroke-dasharray: 7.0,7.0;"/><polygon fill="#A80036" points="599.29,407.94,609.1281,408.4002,603.9489,406.125,606.2241,400.9459,599.29,407.94" style="stroke: #A80036; stroke-width: 1.0;"/><!--MD5=[97b445e6184df7b3732e34303aba7b58]
@startuml

top to bottom direction

class mastermind.views.ColorView {
    ~ write(): void
}
mastermind.utils.WithConsoleView <|- - - mastermind.views.ColorView

class mastermind.views.SecretCombinationView {
    + writeln(int): void
}
mastermind.utils.WithConsoleView <|- - - mastermind.views.SecretCombinationView
mastermind.views.SecretCombinationView ..> mastermind.views.MessageView

class mastermind.views.ProposedCombinationView {
    + write(list) : void
}
mastermind.utils.WithConsoleView <|- - mastermind.views.ProposedCombinationView
mastermind.views.ProposedCombinationView ..> mastermind.views.ColorView
mastermind.views.ProposedCombinationView ..> mastermind.models.Color

class mastermind.views.ProposalView {
    + writeAttempts(int) : void
    + writeWinner() : void
    + writeLooser() : void
    + writeTitle() : void
    + readProposal() : String
    + writeLineBreak() : void
}
mastermind.utils.WithConsoleView <|- - mastermind.views.ProposalView
mastermind.views.ProposalView ..> mastermind.views.MessageView

class mastermind.views.ResultView {
    + writeln(int, int): void
}
mastermind.utils.WithConsoleView <|- - mastermind.views.ResultView
mastermind.views.ResultView ..> mastermind.views.MessageView

class mastermind.views.ResumeView {
    + read() : boolean
}
mastermind.utils.WithConsoleView <|- - mastermind.views.ResumeView
mastermind.views.ResumeView ..> mastermind.utils.YesNoDialog
mastermind.views.ResumeView ..> mastermind.views.MessageView

class mastermind.views.StartView {
    + writeln(): void
}
mastermind.utils.WithConsoleView <|- - mastermind.views.StartView
mastermind.views.StartView ..> mastermind.views.MessageView


enum mastermind.views.MessageView {
    + ATTEMPTS
   	+ SECRET
   	+ RESUME
   	+ RESULT
   	+ PROPOSED_COMBINATION
   	+ TITLE
   	+ WINNER
   	+ LOOSER
    - message: String
    - MessageView(String)
}

@enduml

PlantUML version 1.2020.19(Mon Oct 12 17:10:01 CEST 2020)
(GPL source distribution)
Java Runtime: Java(TM) SE Runtime Environment
JVM: Java HotSpot(TM) 64-Bit Server VM
Default Encoding: UTF-8
Language: es
Country: ES
--></g></svg>