<?xml version="1.0" encoding="UTF-8" standalone="no"?><svg xmlns="http://www.w3.org/2000/svg" xmlns:xlink="http://www.w3.org/1999/xlink" contentScriptType="application/ecmascript" contentStyleType="text/css" height="557px" preserveAspectRatio="none" style="width:1477px;height:557px;" version="1.1" viewBox="0 0 1477 557" width="1477px" zoomAndPan="magnify"><defs><filter height="300%" id="fmfsahy71xqor" width="300%" x="-1" y="-1"><feGaussianBlur result="blurOut" stdDeviation="2.0"/><feColorMatrix in="blurOut" result="blurOut2" type="matrix" values="0 0 0 0 0 0 0 0 0 0 0 0 0 0 0 0 0 0 .4 0"/><feOffset dx="4.0" dy="4.0" in="blurOut2" result="blurOut3"/><feBlend in="SourceGraphic" in2="blurOut3" mode="normal"/></filter></defs><g><!--MD5=[f4a8416df5d5f7c80a7d3a30f9e0f7a6]
cluster mastermind.controllers--><polygon fill="#FFFFFF" filter="url(#fmfsahy71xqor)" points="250,6,424,6,431,28.4883,1024,28.4883,1024,304,250,304,250,6" style="stroke: #000000; stroke-width: 1.5;"/><line style="stroke: #000000; stroke-width: 1.5;" x1="250" x2="431" y1="28.4883" y2="28.4883"/><text fill="#000000" font-family="sans-serif" font-size="14" font-weight="bold" lengthAdjust="spacingAndGlyphs" textLength="168" x="254" y="21.5352">mastermind.controllers</text><!--MD5=[57ab11106b6017d1c059bb8de6501622]
cluster mastermind.views--><polygon fill="#FFFFFF" filter="url(#fmfsahy71xqor)" points="16,328,153,328,160,350.4883,1093,350.4883,1093,427,16,427,16,328" style="stroke: #000000; stroke-width: 1.5;"/><line style="stroke: #000000; stroke-width: 1.5;" x1="16" x2="160" y1="350.4883" y2="350.4883"/><text fill="#000000" font-family="sans-serif" font-size="14" font-weight="bold" lengthAdjust="spacingAndGlyphs" textLength="131" x="20" y="343.5352">mastermind.views</text><!--MD5=[8e0b9655f0966c29230933410523611d]
cluster mastermind.models--><polygon fill="#FFFFFF" filter="url(#fmfsahy71xqor)" points="1038,451,1187,451,1194,473.4883,1460,473.4883,1460,550,1038,550,1038,451" style="stroke: #000000; stroke-width: 1.5;"/><line style="stroke: #000000; stroke-width: 1.5;" x1="1038" x2="1194" y1="473.4883" y2="473.4883"/><text fill="#000000" font-family="sans-serif" font-size="14" font-weight="bold" lengthAdjust="spacingAndGlyphs" textLength="143" x="1042" y="466.5352">mastermind.models</text><!--MD5=[1d24f39eb668951ebcebc2fa16f89b43]
class mastermind.controllers.Controller--><rect codeLine="4" fill="#FEFECE" filter="url(#fmfsahy71xqor)" height="112.7754" id="mastermind.controllers.Controller" style="stroke: #A80036; stroke-width: 1.5;" width="127" x="573.5" y="41"/><ellipse cx="606.05" cy="57" fill="#A9DCDF" rx="11" ry="11" style="stroke: #A80036; stroke-width: 1.0;"/><path d="M606.1633,52.5981 L605.0095,57.6699 L607.3254,57.6699 Z M604.6691,50.3569 L607.6657,50.3569 L611.0109,62.75 L608.5622,62.75 L607.7985,59.687 L604.5197,59.687 L603.7727,62.75 L601.3239,62.75 Z "/><text fill="#000000" font-family="sans-serif" font-size="12" font-style="italic" lengthAdjust="spacingAndGlyphs" textLength="56" x="623.95" y="61.5352">Controller</text><line style="stroke: #A80036; stroke-width: 1.5;" x1="574.5" x2="699.5" y1="73" y2="73"/><rect fill="none" height="6" style="stroke: #C82930; stroke-width: 1.0;" width="6" x="581.5" y="81"/><text fill="#000000" font-family="sans-serif" font-size="11" lengthAdjust="spacingAndGlyphs" textLength="61" x="593.5" y="87.6348">state : State</text><polygon fill="none" points="584.5,91.9551,588.5,95.9551,584.5,99.9551,580.5,95.9551" style="stroke: #B38D22; stroke-width: 1.0;"/><text fill="#000000" font-family="sans-serif" font-size="11" lengthAdjust="spacingAndGlyphs" textLength="101" x="593.5" y="100.5898">game : Mastermind</text><line style="stroke: #A80036; stroke-width: 1.5;" x1="574.5" x2="699.5" y1="106.9102" y2="106.9102"/><polygon fill="#FFFF44" points="584.5,112.9102,588.5,116.9102,584.5,120.9102,580.5,116.9102" style="stroke: #B38D22; stroke-width: 1.0;"/><text fill="#000000" font-family="sans-serif" font-size="11" lengthAdjust="spacingAndGlyphs" textLength="67" x="593.5" y="121.5449">reset() : void</text><polygon fill="#FFFF44" points="584.5,125.8652,588.5,129.8652,584.5,133.8652,580.5,129.8652" style="stroke: #B38D22; stroke-width: 1.0;"/><text fill="#000000" font-family="sans-serif" font-size="11" lengthAdjust="spacingAndGlyphs" textLength="64" x="593.5" y="134.5">next() : void</text><ellipse cx="584.5" cy="143.8203" fill="#84BE84" rx="3" ry="3" style="stroke: #038048; stroke-width: 1.0;"/><text fill="#000000" font-family="sans-serif" font-size="11" font-style="italic" lengthAdjust="spacingAndGlyphs" textLength="79" x="593.5" y="147.4551">control() : void</text><!--MD5=[f38ac43e4fc72409b23abc1f12dd68ae]
class mastermind.controllers.ProposalController--><rect codeLine="12" fill="#FEFECE" filter="url(#fmfsahy71xqor)" height="73.9102" id="mastermind.controllers.ProposalController" style="stroke: #A80036; stroke-width: 1.5;" width="231" x="776.5" y="214"/><ellipse cx="834.75" cy="230" fill="#ADD1B2" rx="11" ry="11" style="stroke: #A80036; stroke-width: 1.0;"/><path d="M837.2231,236.1431 Q836.6421,236.4419 836.0029,236.5913 Q835.3638,236.7407 834.6582,236.7407 Q832.1514,236.7407 830.8315,235.0889 Q829.5117,233.437 829.5117,230.3159 Q829.5117,227.1865 830.8315,225.5347 Q832.1514,223.8828 834.6582,223.8828 Q835.3638,223.8828 836.0112,224.0322 Q836.6587,224.1816 837.2231,224.4805 L837.2231,227.2031 Q836.5923,226.6221 835.9988,226.3523 Q835.4053,226.0825 834.7744,226.0825 Q833.4297,226.0825 832.7449,227.1492 Q832.0601,228.2158 832.0601,230.3159 Q832.0601,232.4077 832.7449,233.4744 Q833.4297,234.541 834.7744,234.541 Q835.4053,234.541 835.9988,234.2712 Q836.5923,234.0015 837.2231,233.4204 Z "/><text fill="#000000" font-family="sans-serif" font-size="12" lengthAdjust="spacingAndGlyphs" textLength="106" x="855.25" y="234.5352">ProposalController</text><line style="stroke: #A80036; stroke-width: 1.5;" x1="777.5" x2="1006.5" y1="246" y2="246"/><line style="stroke: #A80036; stroke-width: 1.5;" x1="777.5" x2="1006.5" y1="254" y2="254"/><polygon fill="#4177AF" points="787.5,261,783.5,267,791.5,267" style="stroke: #1963A0; stroke-width: 1.0;"/><text fill="#000000" font-family="sans-serif" font-size="11" lengthAdjust="spacingAndGlyphs" textLength="205" x="796.5" y="268.6348">ProposalController(Mastermind, State)</text><ellipse cx="787.5" cy="277.9551" fill="#84BE84" rx="3" ry="3" style="stroke: #038048; stroke-width: 1.0;"/><text fill="#000000" font-family="sans-serif" font-size="11" lengthAdjust="spacingAndGlyphs" textLength="79" x="796.5" y="281.5898">control() : void</text><!--MD5=[d9d5430157ad572c27b2bdfc27cdb4ea]
class mastermind.controllers.ResumeController--><rect codeLine="25" fill="#FEFECE" filter="url(#fmfsahy71xqor)" height="73.9102" id="mastermind.controllers.ResumeController" style="stroke: #A80036; stroke-width: 1.5;" width="231" x="266.5" y="214"/><ellipse cx="326.75" cy="230" fill="#ADD1B2" rx="11" ry="11" style="stroke: #A80036; stroke-width: 1.0;"/><path d="M329.2231,236.1431 Q328.6421,236.4419 328.0029,236.5913 Q327.3638,236.7407 326.6582,236.7407 Q324.1514,236.7407 322.8315,235.0889 Q321.5117,233.437 321.5117,230.3159 Q321.5117,227.1865 322.8315,225.5347 Q324.1514,223.8828 326.6582,223.8828 Q327.3638,223.8828 328.0112,224.0322 Q328.6587,224.1816 329.2231,224.4805 L329.2231,227.2031 Q328.5923,226.6221 327.9988,226.3523 Q327.4053,226.0825 326.7744,226.0825 Q325.4297,226.0825 324.7449,227.1492 Q324.0601,228.2158 324.0601,230.3159 Q324.0601,232.4077 324.7449,233.4744 Q325.4297,234.541 326.7744,234.541 Q327.4053,234.541 327.9988,234.2712 Q328.5923,234.0015 329.2231,233.4204 Z "/><text fill="#000000" font-family="sans-serif" font-size="12" lengthAdjust="spacingAndGlyphs" textLength="102" x="347.25" y="234.5352">ResumeController</text><line style="stroke: #A80036; stroke-width: 1.5;" x1="267.5" x2="496.5" y1="246" y2="246"/><line style="stroke: #A80036; stroke-width: 1.5;" x1="267.5" x2="496.5" y1="254" y2="254"/><polygon fill="#4177AF" points="277.5,261,273.5,267,281.5,267" style="stroke: #1963A0; stroke-width: 1.0;"/><text fill="#000000" font-family="sans-serif" font-size="11" lengthAdjust="spacingAndGlyphs" textLength="205" x="286.5" y="268.6348">ProposalController(Mastermind, State)</text><ellipse cx="277.5" cy="277.9551" fill="#84BE84" rx="3" ry="3" style="stroke: #038048; stroke-width: 1.0;"/><text fill="#000000" font-family="sans-serif" font-size="11" lengthAdjust="spacingAndGlyphs" textLength="79" x="286.5" y="281.5898">control() : void</text><!--MD5=[ef6fc8a83c8eb455c00aa47991605c31]
class mastermind.controllers.StartController--><rect codeLine="32" fill="#FEFECE" filter="url(#fmfsahy71xqor)" height="73.9102" id="mastermind.controllers.StartController" style="stroke: #A80036; stroke-width: 1.5;" width="209" x="532.5" y="214"/><ellipse cx="591.75" cy="230" fill="#ADD1B2" rx="11" ry="11" style="stroke: #A80036; stroke-width: 1.0;"/><path d="M594.2231,236.1431 Q593.6421,236.4419 593.0029,236.5913 Q592.3638,236.7407 591.6582,236.7407 Q589.1514,236.7407 587.8315,235.0889 Q586.5117,233.437 586.5117,230.3159 Q586.5117,227.1865 587.8315,225.5347 Q589.1514,223.8828 591.6582,223.8828 Q592.3638,223.8828 593.0112,224.0322 Q593.6587,224.1816 594.2231,224.4805 L594.2231,227.2031 Q593.5923,226.6221 592.9988,226.3523 Q592.4053,226.0825 591.7744,226.0825 Q590.4297,226.0825 589.7449,227.1492 Q589.0601,228.2158 589.0601,230.3159 Q589.0601,232.4077 589.7449,233.4744 Q590.4297,234.541 591.7744,234.541 Q592.4053,234.541 592.9988,234.2712 Q593.5923,234.0015 594.2231,233.4204 Z "/><text fill="#000000" font-family="sans-serif" font-size="12" lengthAdjust="spacingAndGlyphs" textLength="82" x="612.25" y="234.5352">StartController</text><line style="stroke: #A80036; stroke-width: 1.5;" x1="533.5" x2="740.5" y1="246" y2="246"/><line style="stroke: #A80036; stroke-width: 1.5;" x1="533.5" x2="740.5" y1="254" y2="254"/><polygon fill="#4177AF" points="543.5,261,539.5,267,547.5,267" style="stroke: #1963A0; stroke-width: 1.0;"/><text fill="#000000" font-family="sans-serif" font-size="11" lengthAdjust="spacingAndGlyphs" textLength="183" x="552.5" y="268.6348">StartController(Mastermind, State)</text><ellipse cx="543.5" cy="277.9551" fill="#84BE84" rx="3" ry="3" style="stroke: #038048; stroke-width: 1.0;"/><text fill="#000000" font-family="sans-serif" font-size="11" lengthAdjust="spacingAndGlyphs" textLength="79" x="552.5" y="281.5898">control() : void</text><!--MD5=[23fa68f5dd51b02db50930b64c1246c4]
class mastermind.controllers.Logic--><rect codeLine="40" fill="#FEFECE" filter="url(#fmfsahy71xqor)" height="112.7754" id="mastermind.controllers.Logic" style="stroke: #A80036; stroke-width: 1.5;" width="247" x="760.5" y="41"/><ellipse cx="865.25" cy="57" fill="#ADD1B2" rx="11" ry="11" style="stroke: #A80036; stroke-width: 1.0;"/><path d="M867.7231,63.1431 Q867.1421,63.4419 866.5029,63.5913 Q865.8638,63.7407 865.1582,63.7407 Q862.6514,63.7407 861.3315,62.0889 Q860.0117,60.437 860.0117,57.3159 Q860.0117,54.1865 861.3315,52.5347 Q862.6514,50.8828 865.1582,50.8828 Q865.8638,50.8828 866.5112,51.0322 Q867.1587,51.1816 867.7231,51.4805 L867.7231,54.2031 Q867.0923,53.6221 866.4988,53.3523 Q865.9053,53.0825 865.2744,53.0825 Q863.9297,53.0825 863.2449,54.1492 Q862.5601,55.2158 862.5601,57.3159 Q862.5601,59.4077 863.2449,60.4744 Q863.9297,61.541 865.2744,61.541 Q865.9053,61.541 866.4988,61.2712 Q867.0923,61.0015 867.7231,60.4204 Z "/><text fill="#000000" font-family="sans-serif" font-size="12" lengthAdjust="spacingAndGlyphs" textLength="29" x="885.75" y="61.5352">Logic</text><line style="stroke: #A80036; stroke-width: 1.5;" x1="761.5" x2="1006.5" y1="73" y2="73"/><rect fill="none" height="6" style="stroke: #C82930; stroke-width: 1.0;" width="6" x="768.5" y="81"/><text fill="#000000" font-family="sans-serif" font-size="11" lengthAdjust="spacingAndGlyphs" textLength="98" x="780.5" y="87.6348">game: Mastermind</text><rect fill="none" height="6" style="stroke: #C82930; stroke-width: 1.0;" width="6" x="768.5" y="93.9551"/><text fill="#000000" font-family="sans-serif" font-size="11" lengthAdjust="spacingAndGlyphs" textLength="58" x="780.5" y="100.5898">state: State</text><rect fill="none" height="6" style="stroke: #C82930; stroke-width: 1.0;" width="6" x="768.5" y="106.9102"/><text fill="#000000" font-family="sans-serif" font-size="11" lengthAdjust="spacingAndGlyphs" textLength="221" x="780.5" y="113.5449">controllers: Map&lt;StateValue, Controller&gt;</text><line style="stroke: #A80036; stroke-width: 1.5;" x1="761.5" x2="1006.5" y1="119.8652" y2="119.8652"/><polygon fill="#FFFF44" points="771.5,125.8652,775.5,129.8652,771.5,133.8652,767.5,129.8652" style="stroke: #B38D22; stroke-width: 1.0;"/><text fill="#000000" font-family="sans-serif" font-size="11" lengthAdjust="spacingAndGlyphs" textLength="37" x="780.5" y="134.5">Logic()</text><ellipse cx="771.5" cy="143.8203" fill="#84BE84" rx="3" ry="3" style="stroke: #038048; stroke-width: 1.0;"/><text fill="#000000" font-family="sans-serif" font-size="11" lengthAdjust="spacingAndGlyphs" textLength="141" x="780.5" y="147.4551">getController(): Controller</text><!--MD5=[98dd9f5185e3ab904e8d25c4d465541e]
class mastermind.views.ProposalView--><rect fill="#FEFECE" filter="url(#fmfsahy71xqor)" height="48" id="mastermind.views.ProposalView" style="stroke: #A80036; stroke-width: 1.5;" width="109" x="746.5" y="363"/><ellipse cx="761.5" cy="379" fill="#ADD1B2" rx="11" ry="11" style="stroke: #A80036; stroke-width: 1.0;"/><path d="M763.9731,385.1431 Q763.3921,385.4419 762.7529,385.5913 Q762.1138,385.7407 761.4082,385.7407 Q758.9014,385.7407 757.5815,384.0889 Q756.2617,382.437 756.2617,379.3159 Q756.2617,376.1865 757.5815,374.5347 Q758.9014,372.8828 761.4082,372.8828 Q762.1138,372.8828 762.7612,373.0322 Q763.4087,373.1816 763.9731,373.4805 L763.9731,376.2031 Q763.3423,375.6221 762.7488,375.3523 Q762.1553,375.0825 761.5244,375.0825 Q760.1797,375.0825 759.4949,376.1492 Q758.8101,377.2158 758.8101,379.3159 Q758.8101,381.4077 759.4949,382.4744 Q760.1797,383.541 761.5244,383.541 Q762.1553,383.541 762.7488,383.2712 Q763.3423,383.0015 763.9731,382.4204 Z "/><text fill="#000000" font-family="sans-serif" font-size="12" lengthAdjust="spacingAndGlyphs" textLength="77" x="775.5" y="383.5352">ProposalView</text><line style="stroke: #A80036; stroke-width: 1.5;" x1="747.5" x2="854.5" y1="395" y2="395"/><line style="stroke: #A80036; stroke-width: 1.5;" x1="747.5" x2="854.5" y1="403" y2="403"/><!--MD5=[ee236011c866e79872d7eb09821c7fe9]
class mastermind.views.ErrorView--><rect fill="#FEFECE" filter="url(#fmfsahy71xqor)" height="48" id="mastermind.views.ErrorView" style="stroke: #A80036; stroke-width: 1.5;" width="88" x="623" y="363"/><ellipse cx="638" cy="379" fill="#ADD1B2" rx="11" ry="11" style="stroke: #A80036; stroke-width: 1.0;"/><path d="M640.4731,385.1431 Q639.8921,385.4419 639.2529,385.5913 Q638.6138,385.7407 637.9082,385.7407 Q635.4014,385.7407 634.0815,384.0889 Q632.7617,382.437 632.7617,379.3159 Q632.7617,376.1865 634.0815,374.5347 Q635.4014,372.8828 637.9082,372.8828 Q638.6138,372.8828 639.2612,373.0322 Q639.9087,373.1816 640.4731,373.4805 L640.4731,376.2031 Q639.8423,375.6221 639.2488,375.3523 Q638.6553,375.0825 638.0244,375.0825 Q636.6797,375.0825 635.9949,376.1492 Q635.3101,377.2158 635.3101,379.3159 Q635.3101,381.4077 635.9949,382.4744 Q636.6797,383.541 638.0244,383.541 Q638.6553,383.541 639.2488,383.2712 Q639.8423,383.0015 640.4731,382.4204 Z "/><text fill="#000000" font-family="sans-serif" font-size="12" lengthAdjust="spacingAndGlyphs" textLength="56" x="652" y="383.5352">ErrorView</text><line style="stroke: #A80036; stroke-width: 1.5;" x1="624" x2="710" y1="395" y2="395"/><line style="stroke: #A80036; stroke-width: 1.5;" x1="624" x2="710" y1="403" y2="403"/><!--MD5=[56aa617717da0844c5255d733a5f8dfa]
class mastermind.views.ResultView--><rect fill="#FEFECE" filter="url(#fmfsahy71xqor)" height="48" id="mastermind.views.ResultView" style="stroke: #A80036; stroke-width: 1.5;" width="94" x="494" y="363"/><ellipse cx="509" cy="379" fill="#ADD1B2" rx="11" ry="11" style="stroke: #A80036; stroke-width: 1.0;"/><path d="M511.4731,385.1431 Q510.8921,385.4419 510.2529,385.5913 Q509.6138,385.7407 508.9082,385.7407 Q506.4014,385.7407 505.0815,384.0889 Q503.7617,382.437 503.7617,379.3159 Q503.7617,376.1865 505.0815,374.5347 Q506.4014,372.8828 508.9082,372.8828 Q509.6138,372.8828 510.2612,373.0322 Q510.9087,373.1816 511.4731,373.4805 L511.4731,376.2031 Q510.8423,375.6221 510.2488,375.3523 Q509.6553,375.0825 509.0244,375.0825 Q507.6797,375.0825 506.9949,376.1492 Q506.3101,377.2158 506.3101,379.3159 Q506.3101,381.4077 506.9949,382.4744 Q507.6797,383.541 509.0244,383.541 Q509.6553,383.541 510.2488,383.2712 Q510.8423,383.0015 511.4731,382.4204 Z "/><text fill="#000000" font-family="sans-serif" font-size="12" lengthAdjust="spacingAndGlyphs" textLength="62" x="523" y="383.5352">ResultView</text><line style="stroke: #A80036; stroke-width: 1.5;" x1="495" x2="587" y1="395" y2="395"/><line style="stroke: #A80036; stroke-width: 1.5;" x1="495" x2="587" y1="403" y2="403"/><!--MD5=[4ed27cd8fcf5b6ebdc6bc1a8178e2b74]
class mastermind.views.ProposedCombinationView--><rect fill="#FEFECE" filter="url(#fmfsahy71xqor)" height="48" id="mastermind.views.ProposedCombinationView" style="stroke: #A80036; stroke-width: 1.5;" width="186" x="891" y="363"/><ellipse cx="906" cy="379" fill="#ADD1B2" rx="11" ry="11" style="stroke: #A80036; stroke-width: 1.0;"/><path d="M908.4731,385.1431 Q907.8921,385.4419 907.2529,385.5913 Q906.6138,385.7407 905.9082,385.7407 Q903.4014,385.7407 902.0815,384.0889 Q900.7617,382.437 900.7617,379.3159 Q900.7617,376.1865 902.0815,374.5347 Q903.4014,372.8828 905.9082,372.8828 Q906.6138,372.8828 907.2612,373.0322 Q907.9087,373.1816 908.4731,373.4805 L908.4731,376.2031 Q907.8423,375.6221 907.2488,375.3523 Q906.6553,375.0825 906.0244,375.0825 Q904.6797,375.0825 903.9949,376.1492 Q903.3101,377.2158 903.3101,379.3159 Q903.3101,381.4077 903.9949,382.4744 Q904.6797,383.541 906.0244,383.541 Q906.6553,383.541 907.2488,383.2712 Q907.8423,383.0015 908.4731,382.4204 Z "/><text fill="#000000" font-family="sans-serif" font-size="12" lengthAdjust="spacingAndGlyphs" textLength="154" x="920" y="383.5352">ProposedCombinationView</text><line style="stroke: #A80036; stroke-width: 1.5;" x1="892" x2="1076" y1="395" y2="395"/><line style="stroke: #A80036; stroke-width: 1.5;" x1="892" x2="1076" y1="403" y2="403"/><!--MD5=[ec4aad91981170f30f8e0579b5e2d84f]
class mastermind.views.ResumeView--><rect fill="#FEFECE" filter="url(#fmfsahy71xqor)" height="48" id="mastermind.views.ResumeView" style="stroke: #A80036; stroke-width: 1.5;" width="105" x="32.5" y="363"/><ellipse cx="47.5" cy="379" fill="#ADD1B2" rx="11" ry="11" style="stroke: #A80036; stroke-width: 1.0;"/><path d="M49.9731,385.1431 Q49.3921,385.4419 48.7529,385.5913 Q48.1138,385.7407 47.4082,385.7407 Q44.9014,385.7407 43.5815,384.0889 Q42.2617,382.437 42.2617,379.3159 Q42.2617,376.1865 43.5815,374.5347 Q44.9014,372.8828 47.4082,372.8828 Q48.1138,372.8828 48.7612,373.0322 Q49.4087,373.1816 49.9731,373.4805 L49.9731,376.2031 Q49.3423,375.6221 48.7488,375.3523 Q48.1553,375.0825 47.5244,375.0825 Q46.1797,375.0825 45.4949,376.1492 Q44.8101,377.2158 44.8101,379.3159 Q44.8101,381.4077 45.4949,382.4744 Q46.1797,383.541 47.5244,383.541 Q48.1553,383.541 48.7488,383.2712 Q49.3423,383.0015 49.9731,382.4204 Z "/><text fill="#000000" font-family="sans-serif" font-size="12" lengthAdjust="spacingAndGlyphs" textLength="73" x="61.5" y="383.5352">ResumeView</text><line style="stroke: #A80036; stroke-width: 1.5;" x1="33.5" x2="136.5" y1="395" y2="395"/><line style="stroke: #A80036; stroke-width: 1.5;" x1="33.5" x2="136.5" y1="403" y2="403"/><!--MD5=[159b299c59daed45f31e591a5c9e649b]
class mastermind.views.StartView--><rect fill="#FEFECE" filter="url(#fmfsahy71xqor)" height="48" id="mastermind.views.StartView" style="stroke: #A80036; stroke-width: 1.5;" width="85" x="172.5" y="363"/><ellipse cx="187.5" cy="379" fill="#ADD1B2" rx="11" ry="11" style="stroke: #A80036; stroke-width: 1.0;"/><path d="M189.9731,385.1431 Q189.3921,385.4419 188.7529,385.5913 Q188.1138,385.7407 187.4082,385.7407 Q184.9014,385.7407 183.5815,384.0889 Q182.2617,382.437 182.2617,379.3159 Q182.2617,376.1865 183.5815,374.5347 Q184.9014,372.8828 187.4082,372.8828 Q188.1138,372.8828 188.7612,373.0322 Q189.4087,373.1816 189.9731,373.4805 L189.9731,376.2031 Q189.3423,375.6221 188.7488,375.3523 Q188.1553,375.0825 187.5244,375.0825 Q186.1797,375.0825 185.4949,376.1492 Q184.8101,377.2158 184.8101,379.3159 Q184.8101,381.4077 185.4949,382.4744 Q186.1797,383.541 187.5244,383.541 Q188.1553,383.541 188.7488,383.2712 Q189.3423,383.0015 189.9731,382.4204 Z "/><text fill="#000000" font-family="sans-serif" font-size="12" lengthAdjust="spacingAndGlyphs" textLength="53" x="201.5" y="383.5352">StartView</text><line style="stroke: #A80036; stroke-width: 1.5;" x1="173.5" x2="256.5" y1="395" y2="395"/><line style="stroke: #A80036; stroke-width: 1.5;" x1="173.5" x2="256.5" y1="403" y2="403"/><!--MD5=[86bd8337fa6b6b0346fe8333f5c8070e]
class mastermind.views.SecretCombinationView--><rect fill="#FEFECE" filter="url(#fmfsahy71xqor)" height="48" id="mastermind.views.SecretCombinationView" style="stroke: #A80036; stroke-width: 1.5;" width="166" x="293" y="363"/><ellipse cx="308" cy="379" fill="#ADD1B2" rx="11" ry="11" style="stroke: #A80036; stroke-width: 1.0;"/><path d="M310.4731,385.1431 Q309.8921,385.4419 309.2529,385.5913 Q308.6138,385.7407 307.9082,385.7407 Q305.4014,385.7407 304.0815,384.0889 Q302.7617,382.437 302.7617,379.3159 Q302.7617,376.1865 304.0815,374.5347 Q305.4014,372.8828 307.9082,372.8828 Q308.6138,372.8828 309.2612,373.0322 Q309.9087,373.1816 310.4731,373.4805 L310.4731,376.2031 Q309.8423,375.6221 309.2488,375.3523 Q308.6553,375.0825 308.0244,375.0825 Q306.6797,375.0825 305.9949,376.1492 Q305.3101,377.2158 305.3101,379.3159 Q305.3101,381.4077 305.9949,382.4744 Q306.6797,383.541 308.0244,383.541 Q308.6553,383.541 309.2488,383.2712 Q309.8423,383.0015 310.4731,382.4204 Z "/><text fill="#000000" font-family="sans-serif" font-size="12" lengthAdjust="spacingAndGlyphs" textLength="134" x="322" y="383.5352">SecretCombinationView</text><line style="stroke: #A80036; stroke-width: 1.5;" x1="294" x2="458" y1="395" y2="395"/><line style="stroke: #A80036; stroke-width: 1.5;" x1="294" x2="458" y1="403" y2="403"/><!--MD5=[4fef506dd23cb69e4e1cf7f269612ec0]
class mastermind.models.Mastermind--><rect fill="#FEFECE" filter="url(#fmfsahy71xqor)" height="48" id="mastermind.models.Mastermind" style="stroke: #A80036; stroke-width: 1.5;" width="100" x="1054" y="486"/><ellipse cx="1069" cy="502" fill="#ADD1B2" rx="11" ry="11" style="stroke: #A80036; stroke-width: 1.0;"/><path d="M1071.4731,508.1431 Q1070.8921,508.4419 1070.2529,508.5913 Q1069.6138,508.7407 1068.9082,508.7407 Q1066.4014,508.7407 1065.0815,507.0889 Q1063.7617,505.437 1063.7617,502.3159 Q1063.7617,499.1865 1065.0815,497.5347 Q1066.4014,495.8828 1068.9082,495.8828 Q1069.6138,495.8828 1070.2612,496.0322 Q1070.9087,496.1816 1071.4731,496.4805 L1071.4731,499.2031 Q1070.8423,498.6221 1070.2488,498.3523 Q1069.6553,498.0825 1069.0244,498.0825 Q1067.6797,498.0825 1066.9949,499.1492 Q1066.3101,500.2158 1066.3101,502.3159 Q1066.3101,504.4077 1066.9949,505.4744 Q1067.6797,506.541 1069.0244,506.541 Q1069.6553,506.541 1070.2488,506.2712 Q1070.8423,506.0015 1071.4731,505.4204 Z "/><text fill="#000000" font-family="sans-serif" font-size="12" lengthAdjust="spacingAndGlyphs" textLength="68" x="1083" y="506.5352">Mastermind</text><line style="stroke: #A80036; stroke-width: 1.5;" x1="1055" x2="1153" y1="518" y2="518"/><line style="stroke: #A80036; stroke-width: 1.5;" x1="1055" x2="1153" y1="526" y2="526"/><!--MD5=[3fa5b68df7c2e74eea52f74658e5066a]
class mastermind.models.State--><rect fill="#FEFECE" filter="url(#fmfsahy71xqor)" height="48" id="mastermind.models.State" style="stroke: #A80036; stroke-width: 1.5;" width="60" x="1384" y="486"/><ellipse cx="1399" cy="502" fill="#ADD1B2" rx="11" ry="11" style="stroke: #A80036; stroke-width: 1.0;"/><path d="M1401.4731,508.1431 Q1400.8921,508.4419 1400.2529,508.5913 Q1399.6138,508.7407 1398.9082,508.7407 Q1396.4014,508.7407 1395.0815,507.0889 Q1393.7617,505.437 1393.7617,502.3159 Q1393.7617,499.1865 1395.0815,497.5347 Q1396.4014,495.8828 1398.9082,495.8828 Q1399.6138,495.8828 1400.2612,496.0322 Q1400.9087,496.1816 1401.4731,496.4805 L1401.4731,499.2031 Q1400.8423,498.6221 1400.2488,498.3523 Q1399.6553,498.0825 1399.0244,498.0825 Q1397.6797,498.0825 1396.9949,499.1492 Q1396.3101,500.2158 1396.3101,502.3159 Q1396.3101,504.4077 1396.9949,505.4744 Q1397.6797,506.541 1399.0244,506.541 Q1399.6553,506.541 1400.2488,506.2712 Q1400.8423,506.0015 1401.4731,505.4204 Z "/><text fill="#000000" font-family="sans-serif" font-size="12" lengthAdjust="spacingAndGlyphs" textLength="28" x="1413" y="506.5352">State</text><line style="stroke: #A80036; stroke-width: 1.5;" x1="1385" x2="1443" y1="518" y2="518"/><line style="stroke: #A80036; stroke-width: 1.5;" x1="1385" x2="1443" y1="526" y2="526"/><!--MD5=[ce8dc00f64766c3d9ddc5c23d11e019b]
class mastermind.models.ProposedCombination--><rect fill="#FEFECE" filter="url(#fmfsahy71xqor)" height="48" id="mastermind.models.ProposedCombination" style="stroke: #A80036; stroke-width: 1.5;" width="159" x="1189.5" y="486"/><ellipse cx="1204.5" cy="502" fill="#ADD1B2" rx="11" ry="11" style="stroke: #A80036; stroke-width: 1.0;"/><path d="M1206.9731,508.1431 Q1206.3921,508.4419 1205.7529,508.5913 Q1205.1138,508.7407 1204.4082,508.7407 Q1201.9014,508.7407 1200.5815,507.0889 Q1199.2617,505.437 1199.2617,502.3159 Q1199.2617,499.1865 1200.5815,497.5347 Q1201.9014,495.8828 1204.4082,495.8828 Q1205.1138,495.8828 1205.7612,496.0322 Q1206.4087,496.1816 1206.9731,496.4805 L1206.9731,499.2031 Q1206.3423,498.6221 1205.7488,498.3523 Q1205.1553,498.0825 1204.5244,498.0825 Q1203.1797,498.0825 1202.4949,499.1492 Q1201.8101,500.2158 1201.8101,502.3159 Q1201.8101,504.4077 1202.4949,505.4744 Q1203.1797,506.541 1204.5244,506.541 Q1205.1553,506.541 1205.7488,506.2712 Q1206.3423,506.0015 1206.9731,505.4204 Z "/><text fill="#000000" font-family="sans-serif" font-size="12" lengthAdjust="spacingAndGlyphs" textLength="127" x="1218.5" y="506.5352">ProposedCombination</text><line style="stroke: #A80036; stroke-width: 1.5;" x1="1190.5" x2="1347.5" y1="518" y2="518"/><line style="stroke: #A80036; stroke-width: 1.5;" x1="1190.5" x2="1347.5" y1="526" y2="526"/><!--MD5=[dba634500bd5c2a040691ba35908d8cd]
reverse link mastermind.controllers.Controller to mastermind.controllers.ProposalController--><path codeLine="16" d="M718.16,146.72 C754.85,168.52 797.46,193.83 831.31,213.95 " fill="none" id="mastermind.controllers.Controller-backto-mastermind.controllers.ProposalController" style="stroke: #A80036; stroke-width: 1.0;"/><polygon fill="none" points="714.31,152.57,700.69,136.34,721.46,140.54,714.31,152.57" style="stroke: #A80036; stroke-width: 1.0;"/><!--MD5=[d73d674f948ae06678690cc5a85cb94f]
link mastermind.controllers.ProposalController to mastermind.views.ProposalView--><path codeLine="17" d="M860.6255,298.1853 C860.6255,298.1853 835.07,335.83 824.22,351.81 " fill="none" id="mastermind.controllers.ProposalController-mastermind.views.ProposalView" style="stroke: #A80036; stroke-width: 1.0;"/><polygon fill="#A80036" points="816.77,362.78,825.1415,357.5918,819.584,358.647,818.5287,353.0894,816.77,362.78" style="stroke: #A80036; stroke-width: 1.0;"/><line style="stroke: #A80036; stroke-width: 1.0;" x1="819.584" x2="824.07" y1="358.647" y2="352.03"/><polygon fill="#A80036" points="867.37,288.26,860.6893,290.9745,860.6255,298.1853,867.3062,295.4708,867.37,288.26" style="stroke: #A80036; stroke-width: 1.0;"/><!--MD5=[e0e913bc376f49819669d8274ba9b5cf]
link mastermind.controllers.ProposalController to mastermind.models.Mastermind--><path codeLine="18" d="M1007.69,266.54 C1040.2,276.42 1072.29,292.83 1093,320 C1128.66,366.78 1119.84,440.52 1111.3,480.66 " fill="none" id="mastermind.controllers.ProposalController-to-mastermind.models.Mastermind" style="stroke: #A80036; stroke-width: 1.0;"/><polygon fill="#A80036" points="1110.15,485.86,1116.0071,477.942,1111.2347,480.9791,1108.1976,476.2066,1110.15,485.86" style="stroke: #A80036; stroke-width: 1.0;"/><!--MD5=[8d700069c6f3a157ba4eb5e66db4ce46]
link mastermind.controllers.ProposalController to mastermind.models.State--><path codeLine="19" d="M1007.83,264.42 C1069.15,274.07 1144.48,290.91 1207,320 C1288,357.69 1303.77,378.9 1366,443 C1377.25,454.59 1388,468.94 1396.46,481.3 " fill="none" id="mastermind.controllers.ProposalController-to-mastermind.models.State" style="stroke: #A80036; stroke-width: 1.0;"/><polygon fill="#A80036" points="1399.47,485.76,1397.7444,476.0635,1396.6702,481.6174,1391.1163,480.5432,1399.47,485.76" style="stroke: #A80036; stroke-width: 1.0;"/><!--MD5=[4933033af16a6e3f6ce38ee523d0db1c]
link mastermind.controllers.ProposalController to mastermind.models.ProposedCombination--><path codeLine="20" d="M1007.53,268.46 C1049.44,278.46 1095.43,294.45 1132,320 C1192.46,362.24 1236.19,439.94 1256.43,481.33 " fill="none" id="mastermind.controllers.ProposalController-to-mastermind.models.ProposedCombination" style="stroke: #A80036; stroke-width: 1.0; stroke-dasharray: 7.0,7.0;"/><polygon fill="#A80036" points="1258.66,485.95,1258.3512,476.106,1256.4871,481.4469,1251.1462,479.5827,1258.66,485.95" style="stroke: #A80036; stroke-width: 1.0;"/><!--MD5=[9efc5a611c220f4bd3d84b8e4dc96c55]
link mastermind.controllers.ProposalController to mastermind.views.ErrorView--><path codeLine="21" d="M817.62,288.13 C798.74,296.58 778.33,305.11 759,312 C746,316.63 740.85,312.92 729,320 C712.61,329.79 697.82,345.15 686.8,358.58 " fill="none" id="mastermind.controllers.ProposalController-to-mastermind.views.ErrorView" style="stroke: #A80036; stroke-width: 1.0; stroke-dasharray: 7.0,7.0;"/><polygon fill="#A80036" points="683.5,362.68,692.2518,358.1627,686.6287,358.7798,686.0115,353.1568,683.5,362.68" style="stroke: #A80036; stroke-width: 1.0;"/><!--MD5=[2c654de3e9438bfdf9da097dc8ba9324]
link mastermind.controllers.ProposalController to mastermind.views.ResultView--><path codeLine="22" d="M825.05,288.03 C804.43,297.52 781.28,306.6 759,312 C725.7,320.07 636.2,305.83 605,320 C586.54,328.39 570.64,344.71 559.3,359.02 " fill="none" id="mastermind.controllers.ProposalController-to-mastermind.views.ResultView" style="stroke: #A80036; stroke-width: 1.0; stroke-dasharray: 7.0,7.0;"/><polygon fill="#A80036" points="556.23,362.99,564.8977,358.3133,559.2868,359.0333,558.5669,353.4224,556.23,362.99" style="stroke: #A80036; stroke-width: 1.0;"/><!--MD5=[74de94e381ac694515317cf1ffdfa2e3]
link mastermind.controllers.ProposalController to mastermind.views.ProposedCombinationView--><path codeLine="23" d="M916.9,288.26 C932.1,310.41 951.23,338.27 965.17,358.57 " fill="none" id="mastermind.controllers.ProposalController-to-mastermind.views.ProposedCombinationView" style="stroke: #A80036; stroke-width: 1.0; stroke-dasharray: 7.0,7.0;"/><polygon fill="#A80036" points="968.06,362.78,966.2574,353.0975,965.2274,358.6598,959.6651,357.6297,968.06,362.78" style="stroke: #A80036; stroke-width: 1.0;"/><!--MD5=[63f96e29fdca8300300afc62ac286f3b]
reverse link mastermind.controllers.Controller to mastermind.controllers.ResumeController--><path codeLine="29" d="M555.84,146.72 C519.15,168.52 476.54,193.83 442.69,213.95 " fill="none" id="mastermind.controllers.Controller-backto-mastermind.controllers.ResumeController" style="stroke: #A80036; stroke-width: 1.0;"/><polygon fill="none" points="552.54,140.54,573.31,136.34,559.69,152.57,552.54,140.54" style="stroke: #A80036; stroke-width: 1.0;"/><!--MD5=[57d074238b9d3d5afd6b4e7a8f7bb5c2]
link mastermind.controllers.ResumeController to mastermind.views.ResumeView--><path codeLine="30" d="M266.33,275.51 C229.26,285.91 189.03,300.36 155,320 C137.28,330.23 120.49,345.78 107.8,359.21 " fill="none" id="mastermind.controllers.ResumeController-to-mastermind.views.ResumeView" style="stroke: #A80036; stroke-width: 1.0; stroke-dasharray: 7.0,7.0;"/><polygon fill="#A80036" points="104.33,362.94,113.3876,359.0721,107.7344,359.2781,107.5285,353.625,104.33,362.94" style="stroke: #A80036; stroke-width: 1.0;"/><!--MD5=[101627d6c0a8a8178df7245d6f58f5d0]
reverse link mastermind.controllers.Controller to mastermind.controllers.StartController--><path codeLine="36" d="M637,174.11 C637,187.94 637,201.79 637,213.79 " fill="none" id="mastermind.controllers.Controller-backto-mastermind.controllers.StartController" style="stroke: #A80036; stroke-width: 1.0;"/><polygon fill="none" points="630,174.05,637,154.05,644,174.05,630,174.05" style="stroke: #A80036; stroke-width: 1.0;"/><!--MD5=[6c1b8b8c8f81de141ed0242ead4e5727]
link mastermind.controllers.StartController to mastermind.views.StartView--><path codeLine="37" d="M576.26,288.15 C557.28,297.7 535.84,306.79 515,312 C489.12,318.48 299.22,308.8 275,320 C257.29,328.19 242.49,344.3 232.01,358.55 " fill="none" id="mastermind.controllers.StartController-to-mastermind.views.StartView" style="stroke: #A80036; stroke-width: 1.0; stroke-dasharray: 7.0,7.0;"/><polygon fill="#A80036" points="228.9,362.9,237.3794,357.8901,231.8008,358.8275,230.8634,353.2488,228.9,362.9" style="stroke: #A80036; stroke-width: 1.0;"/><!--MD5=[da3b8962726904e930a3dbe48709f4c5]
link mastermind.controllers.StartController to mastermind.views.SecretCombinationView--><path codeLine="38" d="M571.51,288.01 C553.58,296.81 533.87,305.54 515,312 C498.26,317.73 492.35,313.23 476,320 C451.88,329.99 427.38,346.05 408.66,359.83 " fill="none" id="mastermind.controllers.StartController-to-mastermind.views.SecretCombinationView" style="stroke: #A80036; stroke-width: 1.0; stroke-dasharray: 7.0,7.0;"/><polygon fill="#A80036" points="404.52,362.91,414.1287,360.7484,408.532,359.926,409.3543,354.3293,404.52,362.91" style="stroke: #A80036; stroke-width: 1.0;"/><!--MD5=[353987e1584d43f67cb2d9d2e56575f1]
link mastermind.controllers.Logic to mastermind.controllers.StartController--><path codeLine="47" d="M783.2011,160.3245 C783.2011,160.3245 730.56,192.61 707.22,206.93 " fill="none" id="mastermind.controllers.Logic-mastermind.controllers.StartController" style="stroke: #A80036; stroke-width: 1.0;"/><polygon fill="#A80036" points="696.04,213.79,705.8032,212.4938,700.3021,211.1756,701.6202,205.6745,696.04,213.79" style="stroke: #A80036; stroke-width: 1.0;"/><line style="stroke: #A80036; stroke-width: 1.0;" x1="700.3021" x2="707.12" y1="211.1756" y2="206.99"/><polygon fill="#A80036" points="793.43,154.05,786.224,153.7776,783.2011,160.3245,790.407,160.5969,793.43,154.05" style="stroke: #A80036; stroke-width: 1.0;"/><!--MD5=[7108d6589ff800bd5e725443db89e985]
link mastermind.controllers.Logic to mastermind.controllers.ProposalController--><path codeLine="48" d="M887.5635,166.0333 C887.5635,166.0333 888.84,190.11 889.4,200.78 " fill="none" id="mastermind.controllers.Logic-mastermind.controllers.ProposalController" style="stroke: #A80036; stroke-width: 1.0;"/><polygon fill="#A80036" points="890.09,213.79,893.6098,204.5916,889.8263,208.797,885.621,205.0134,890.09,213.79" style="stroke: #A80036; stroke-width: 1.0;"/><line style="stroke: #A80036; stroke-width: 1.0;" x1="889.8263" x2="889.405" y1="208.797" y2="200.81"/><polygon fill="#A80036" points="886.93,154.05,883.2523,160.2528,887.5635,166.0333,891.2412,159.8305,886.93,154.05" style="stroke: #A80036; stroke-width: 1.0;"/><!--MD5=[ee6880a2a5bda36b4248be87bc3725a0]
link mastermind.controllers.Logic to mastermind.controllers.ResumeController--><path codeLine="49" d="M749.0458,144.1837 C749.0458,144.1837 727.8,150.96 718,154 C649.83,175.12 573.35,197.11 510.6,214.7 " fill="none" id="mastermind.controllers.Logic-mastermind.controllers.ResumeController" style="stroke: #A80036; stroke-width: 1.0;"/><polygon fill="#A80036" points="497.84,218.27,507.5848,219.6981,502.6552,216.9233,505.43,211.9937,497.84,218.27" style="stroke: #A80036; stroke-width: 1.0;"/><line style="stroke: #A80036; stroke-width: 1.0;" x1="502.6552" x2="510.355" y1="216.9233" y2="214.77"/><polygon fill="#A80036" points="760.46,140.48,753.5184,138.5271,749.0458,144.1837,755.9875,146.1366,760.46,140.48" style="stroke: #A80036; stroke-width: 1.0;"/><!--MD5=[b009b7e95d4bc37a0da750c80f28b9e6]
link mastermind.controllers.Logic to mastermind.models.Mastermind--><path codeLine="50" d="M990.7482,160.9909 C990.7482,160.9909 1104.46,253.95 1132,320 C1153.1,370.61 1135.28,434.67 1120,473.7 " fill="none" id="mastermind.controllers.Logic-mastermind.models.Mastermind" style="stroke: #A80036; stroke-width: 1.0;"/><polygon fill="#A80036" points="1114.97,485.93,1122.0934,479.1288,1116.8724,481.306,1114.6951,476.085,1114.97,485.93" style="stroke: #A80036; stroke-width: 1.0;"/><line style="stroke: #A80036; stroke-width: 1.0;" x1="1116.8724" x2="1119.915" y1="481.306" y2="473.9"/><polygon fill="#A80036" points="980.91,154.12,983.5388,160.8349,990.7482,160.9909,988.1194,154.2761,980.91,154.12" style="stroke: #A80036; stroke-width: 1.0;"/><!--MD5=[b2128c61d986d82cc1c54858f2adf26c]
link mastermind.controllers.Logic to mastermind.models.State--><path codeLine="51" d="M1018.4076,156.2267 C1018.4076,156.2267 1088.25,192.86 1119,214 C1242.37,298.8 1266.62,331.05 1366,443 C1374.87,452.99 1383.71,464.57 1391.35,475.21 " fill="none" id="mastermind.controllers.Logic-mastermind.models.State" style="stroke: #A80036; stroke-width: 1.0;"/><polygon fill="#A80036" points="1398.82,485.86,1396.9314,476.1939,1395.9508,481.7651,1390.3796,480.7846,1398.82,485.86" style="stroke: #A80036; stroke-width: 1.0;"/><line style="stroke: #A80036; stroke-width: 1.0;" x1="1395.9508" x2="1391.355" y1="481.7651" y2="475.22"/><polygon fill="#A80036" points="1007.63,150.95,1011.2599,157.1809,1018.4076,156.2267,1014.7777,149.9958,1007.63,150.95" style="stroke: #A80036; stroke-width: 1.0;"/><!--MD5=[03c0d24d418986d09f9e27f7de1b2946]
@startuml

top to bottom direction

abstract class mastermind.controllers.Controller {
    - state : State
    # game : Mastermind
    # reset() : void
    # next() : void
    + {abstract} control() : void
}

class mastermind.controllers.ProposalController {
    ~ ProposalController(Mastermind, State)
    + control() : void
}
mastermind.controllers.Controller <|- - mastermind.controllers.ProposalController
mastermind.controllers.ProposalController *- -> mastermind.views.ProposalView
mastermind.controllers.ProposalController - - -> mastermind.models.Mastermind
mastermind.controllers.ProposalController - - -> mastermind.models.State
mastermind.controllers.ProposalController ..> mastermind.models.ProposedCombination
mastermind.controllers.ProposalController ..> mastermind.views.ErrorView
mastermind.controllers.ProposalController ..> mastermind.views.ResultView
mastermind.controllers.ProposalController ..> mastermind.views.ProposedCombinationView

class mastermind.controllers.ResumeController {
    ~ ProposalController(Mastermind, State)
    + control() : void
}
mastermind.controllers.Controller <|- - mastermind.controllers.ResumeController
mastermind.controllers.ResumeController ..> mastermind.views.ResumeView

class mastermind.controllers.StartController {
    ~ StartController(Mastermind, State)
    + control() : void
}
mastermind.controllers.Controller <|- - mastermind.controllers.StartController
mastermind.controllers.StartController ..> mastermind.views.StartView
mastermind.controllers.StartController ..> mastermind.views.SecretCombinationView

class mastermind.controllers.Logic {
    - game: Mastermind
    - state: State
    - controllers: Map<StateValue, Controller>
    # Logic()
    + getController(): Controller
}
mastermind.controllers.Logic *- -> mastermind.controllers.StartController
mastermind.controllers.Logic *- -> mastermind.controllers.ProposalController
mastermind.controllers.Logic *- -> mastermind.controllers.ResumeController
mastermind.controllers.Logic *- -> mastermind.models.Mastermind
mastermind.controllers.Logic *- -> mastermind.models.State

@enduml

PlantUML version 1.2020.19(Mon Oct 12 17:10:01 CEST 2020)
(GPL source distribution)
Java Runtime: Java(TM) SE Runtime Environment
JVM: Java HotSpot(TM) 64-Bit Server VM
Default Encoding: UTF-8
Language: es
Country: ES
--></g></svg>