<?xml version="1.0" encoding="UTF-8" standalone="no"?><svg xmlns="http://www.w3.org/2000/svg" xmlns:xlink="http://www.w3.org/1999/xlink" contentScriptType="application/ecmascript" contentStyleType="text/css" height="696px" preserveAspectRatio="none" style="width:528px;height:696px;" version="1.1" viewBox="0 0 528 696" width="528px" zoomAndPan="magnify"><defs><filter height="300%" id="fvake5bkbkcpj" width="300%" x="-1" y="-1"><feGaussianBlur result="blurOut" stdDeviation="2.0"/><feColorMatrix in="blurOut" result="blurOut2" type="matrix" values="0 0 0 0 0 0 0 0 0 0 0 0 0 0 0 0 0 0 .4 0"/><feOffset dx="4.0" dy="4.0" in="blurOut2" result="blurOut3"/><feBlend in="SourceGraphic" in2="blurOut3" mode="normal"/></filter></defs><g><!--MD5=[8e0b9655f0966c29230933410523611d]
cluster mastermind.models--><polygon fill="#FFFFFF" filter="url(#fvake5bkbkcpj)" points="16,6,165,6,172,28.4883,511,28.4883,511,689,16,689,16,6" style="stroke: #000000; stroke-width: 1.5;"/><line style="stroke: #000000; stroke-width: 1.5;" x1="16" x2="172" y1="28.4883" y2="28.4883"/><text fill="#000000" font-family="sans-serif" font-size="14" font-weight="bold" lengthAdjust="spacingAndGlyphs" textLength="143" x="20" y="21.5352">mastermind.models</text><!--MD5=[d651fe00be970cecfa55949b529656ab]
class mastermind.models.Session--><rect codeLine="4" fill="#FEFECE" filter="url(#fvake5bkbkcpj)" height="73.9102" id="mastermind.models.Session" style="stroke: #A80036; stroke-width: 1.5;" width="167" x="327.5" y="60.5"/><ellipse cx="385.75" cy="76.5" fill="#B4A7E5" rx="11" ry="11" style="stroke: #A80036; stroke-width: 1.0;"/><path d="M382.1777,72.7651 L382.1777,70.6069 L389.5571,70.6069 L389.5571,72.7651 L387.0918,72.7651 L387.0918,80.8418 L389.5571,80.8418 L389.5571,83 L382.1777,83 L382.1777,80.8418 L384.6431,80.8418 L384.6431,72.7651 Z "/><text fill="#000000" font-family="sans-serif" font-size="12" font-style="italic" lengthAdjust="spacingAndGlyphs" textLength="42" x="406.25" y="81.0352">Session</text><line style="stroke: #A80036; stroke-width: 1.5;" x1="328.5" x2="493.5" y1="92.5" y2="92.5"/><line style="stroke: #A80036; stroke-width: 1.5;" x1="328.5" x2="493.5" y1="100.5" y2="100.5"/><ellipse cx="338.5" cy="111.5" fill="#84BE84" rx="3" ry="3" style="stroke: #038048; stroke-width: 1.0;"/><text fill="#000000" font-family="sans-serif" font-size="11" lengthAdjust="spacingAndGlyphs" textLength="49" x="347.5" y="115.1348">Session()</text><ellipse cx="338.5" cy="124.4551" fill="#84BE84" rx="3" ry="3" style="stroke: #038048; stroke-width: 1.0;"/><text fill="#000000" font-family="sans-serif" font-size="11" font-style="italic" lengthAdjust="spacingAndGlyphs" textLength="141" x="347.5" y="128.0898">getValueState(): StateValue</text><!--MD5=[ec0d7954693320b8f20d2ff1330d13b4]
class mastermind.models.StateValue--><rect fill="#FEFECE" filter="url(#fvake5bkbkcpj)" height="48" id="mastermind.models.StateValue" style="stroke: #A80036; stroke-width: 1.5;" width="92" x="403" y="272.5"/><ellipse cx="418" cy="288.5" fill="#ADD1B2" rx="11" ry="11" style="stroke: #A80036; stroke-width: 1.0;"/><path d="M420.4731,294.6431 Q419.8921,294.9419 419.2529,295.0913 Q418.6138,295.2407 417.9082,295.2407 Q415.4014,295.2407 414.0815,293.5889 Q412.7617,291.937 412.7617,288.8159 Q412.7617,285.6865 414.0815,284.0347 Q415.4014,282.3828 417.9082,282.3828 Q418.6138,282.3828 419.2612,282.5322 Q419.9087,282.6816 420.4731,282.9805 L420.4731,285.7031 Q419.8423,285.1221 419.2488,284.8523 Q418.6553,284.5825 418.0244,284.5825 Q416.6797,284.5825 415.9949,285.6492 Q415.3101,286.7158 415.3101,288.8159 Q415.3101,290.9077 415.9949,291.9744 Q416.6797,293.041 418.0244,293.041 Q418.6553,293.041 419.2488,292.7712 Q419.8423,292.5015 420.4731,291.9204 Z "/><text fill="#000000" font-family="sans-serif" font-size="12" lengthAdjust="spacingAndGlyphs" textLength="60" x="432" y="293.0352">StateValue</text><line style="stroke: #A80036; stroke-width: 1.5;" x1="404" x2="494" y1="304.5" y2="304.5"/><line style="stroke: #A80036; stroke-width: 1.5;" x1="404" x2="494" y1="312.5" y2="312.5"/><!--MD5=[76192feed0375c0e75b753955edb26b2]
class mastermind.models.InMemorySession--><rect codeLine="10" fill="#FEFECE" filter="url(#fvake5bkbkcpj)" height="112.7754" id="mastermind.models.InMemorySession" style="stroke: #A80036; stroke-width: 1.5;" width="167" x="87.5" y="41"/><ellipse cx="119.15" cy="57" fill="#ADD1B2" rx="11" ry="11" style="stroke: #A80036; stroke-width: 1.0;"/><path d="M121.6231,63.1431 Q121.0421,63.4419 120.4029,63.5913 Q119.7638,63.7407 119.0582,63.7407 Q116.5514,63.7407 115.2315,62.0889 Q113.9117,60.437 113.9117,57.3159 Q113.9117,54.1865 115.2315,52.5347 Q116.5514,50.8828 119.0582,50.8828 Q119.7638,50.8828 120.4112,51.0322 Q121.0587,51.1816 121.6231,51.4805 L121.6231,54.2031 Q120.9923,53.6221 120.3988,53.3523 Q119.8053,53.0825 119.1744,53.0825 Q117.8297,53.0825 117.1449,54.1492 Q116.4601,55.2158 116.4601,57.3159 Q116.4601,59.4077 117.1449,60.4744 Q117.8297,61.541 119.1744,61.541 Q119.8053,61.541 120.3988,61.2712 Q120.9923,61.0015 121.6231,60.4204 Z "/><text fill="#000000" font-family="sans-serif" font-size="12" lengthAdjust="spacingAndGlyphs" textLength="98" x="136.85" y="61.5352">InMemorySession</text><line style="stroke: #A80036; stroke-width: 1.5;" x1="88.5" x2="253.5" y1="73" y2="73"/><rect fill="none" height="6" style="stroke: #C82930; stroke-width: 1.0;" width="6" x="95.5" y="81"/><text fill="#000000" font-family="sans-serif" font-size="11" lengthAdjust="spacingAndGlyphs" textLength="133" x="107.5" y="87.6348">mastermind: Mastermind</text><rect fill="none" height="6" style="stroke: #C82930; stroke-width: 1.0;" width="6" x="95.5" y="93.9551"/><text fill="#000000" font-family="sans-serif" font-size="11" lengthAdjust="spacingAndGlyphs" textLength="122" x="107.5" y="100.5898">registry: GameRegistry</text><rect fill="none" height="6" style="stroke: #C82930; stroke-width: 1.0;" width="6" x="95.5" y="106.9102"/><text fill="#000000" font-family="sans-serif" font-size="11" lengthAdjust="spacingAndGlyphs" textLength="58" x="107.5" y="113.5449">state: State</text><line style="stroke: #A80036; stroke-width: 1.5;" x1="88.5" x2="253.5" y1="119.8652" y2="119.8652"/><ellipse cx="98.5" cy="130.8652" fill="#84BE84" rx="3" ry="3" style="stroke: #038048; stroke-width: 1.0;"/><text fill="#000000" font-family="sans-serif" font-size="11" lengthAdjust="spacingAndGlyphs" textLength="102" x="107.5" y="134.5">InMemorySession()</text><ellipse cx="98.5" cy="143.8203" fill="#84BE84" rx="3" ry="3" style="stroke: #038048; stroke-width: 1.0;"/><text fill="#000000" font-family="sans-serif" font-size="11" lengthAdjust="spacingAndGlyphs" textLength="141" x="107.5" y="147.4551">getValueState(): StateValue</text><!--MD5=[4fef506dd23cb69e4e1cf7f269612ec0]
class mastermind.models.Mastermind--><rect codeLine="35" fill="#FEFECE" filter="url(#fvake5bkbkcpj)" height="73.9102" id="mastermind.models.Mastermind" style="stroke: #A80036; stroke-width: 1.5;" width="201" x="32.5" y="439"/><ellipse cx="94.75" cy="455" fill="#ADD1B2" rx="11" ry="11" style="stroke: #A80036; stroke-width: 1.0;"/><path d="M97.2231,461.1431 Q96.6421,461.4419 96.0029,461.5913 Q95.3638,461.7407 94.6582,461.7407 Q92.1514,461.7407 90.8315,460.0889 Q89.5117,458.437 89.5117,455.3159 Q89.5117,452.1865 90.8315,450.5347 Q92.1514,448.8828 94.6582,448.8828 Q95.3638,448.8828 96.0112,449.0322 Q96.6587,449.1816 97.2231,449.4805 L97.2231,452.2031 Q96.5923,451.6221 95.9988,451.3523 Q95.4053,451.0825 94.7744,451.0825 Q93.4297,451.0825 92.7449,452.1492 Q92.0601,453.2158 92.0601,455.3159 Q92.0601,457.4077 92.7449,458.4744 Q93.4297,459.541 94.7744,459.541 Q95.4053,459.541 95.9988,459.2712 Q96.5923,459.0015 97.2231,458.4204 Z "/><text fill="#000000" font-family="sans-serif" font-size="12" lengthAdjust="spacingAndGlyphs" textLength="68" x="115.25" y="459.5352">Mastermind</text><line style="stroke: #A80036; stroke-width: 1.5;" x1="33.5" x2="232.5" y1="471" y2="471"/><line style="stroke: #A80036; stroke-width: 1.5;" x1="33.5" x2="232.5" y1="479" y2="479"/><polygon fill="#4177AF" points="43.5,486,39.5,492,47.5,492" style="stroke: #1963A0; stroke-width: 1.0;"/><text fill="#000000" font-family="sans-serif" font-size="11" lengthAdjust="spacingAndGlyphs" textLength="175" x="52.5" y="493.6348">createMemento(): GameMemento</text><polygon fill="#4177AF" points="43.5,498.9551,39.5,504.9551,47.5,504.9551" style="stroke: #1963A0; stroke-width: 1.0;"/><text fill="#000000" font-family="sans-serif" font-size="11" lengthAdjust="spacingAndGlyphs" textLength="155" x="52.5" y="506.5898">restore(GameMemento): void</text><!--MD5=[5840579d8d1d33a10ff464fac5c837e1]
class mastermind.models.GameRegistry--><rect codeLine="21" fill="#FEFECE" filter="url(#fvake5bkbkcpj)" height="164.5957" id="mastermind.models.GameRegistry" style="stroke: #A80036; stroke-width: 1.5;" width="204" x="69" y="214"/><ellipse cx="126.75" cy="230" fill="#ADD1B2" rx="11" ry="11" style="stroke: #A80036; stroke-width: 1.0;"/><path d="M129.2231,236.1431 Q128.6421,236.4419 128.0029,236.5913 Q127.3638,236.7407 126.6582,236.7407 Q124.1514,236.7407 122.8315,235.0889 Q121.5117,233.437 121.5117,230.3159 Q121.5117,227.1865 122.8315,225.5347 Q124.1514,223.8828 126.6582,223.8828 Q127.3638,223.8828 128.0112,224.0322 Q128.6587,224.1816 129.2231,224.4805 L129.2231,227.2031 Q128.5923,226.6221 127.9988,226.3523 Q127.4053,226.0825 126.7744,226.0825 Q125.4297,226.0825 124.7449,227.1492 Q124.0601,228.2158 124.0601,230.3159 Q124.0601,232.4077 124.7449,233.4744 Q125.4297,234.541 126.7744,234.541 Q127.4053,234.541 127.9988,234.2712 Q128.5923,234.0015 129.2231,233.4204 Z "/><text fill="#000000" font-family="sans-serif" font-size="12" lengthAdjust="spacingAndGlyphs" textLength="80" x="147.25" y="234.5352">GameRegistry</text><line style="stroke: #A80036; stroke-width: 1.5;" x1="70" x2="272" y1="246" y2="246"/><rect fill="none" height="6" style="stroke: #C82930; stroke-width: 1.0;" width="6" x="77" y="254"/><text fill="#000000" font-family="sans-serif" font-size="11" lengthAdjust="spacingAndGlyphs" textLength="178" x="89" y="260.6348">mementos: List&lt;GameMemento&gt;</text><rect fill="none" height="6" style="stroke: #C82930; stroke-width: 1.0;" width="6" x="77" y="266.9551"/><text fill="#000000" font-family="sans-serif" font-size="11" lengthAdjust="spacingAndGlyphs" textLength="133" x="89" y="273.5898">mastermind: Mastermind</text><rect fill="none" height="6" style="stroke: #C82930; stroke-width: 1.0;" width="6" x="77" y="279.9102"/><text fill="#000000" font-family="sans-serif" font-size="11" lengthAdjust="spacingAndGlyphs" textLength="82" x="89" y="286.5449">actualIndex: int</text><line style="stroke: #A80036; stroke-width: 1.5;" x1="70" x2="272" y1="292.8652" y2="292.8652"/><polygon fill="#4177AF" points="80,299.8652,76,305.8652,84,305.8652" style="stroke: #1963A0; stroke-width: 1.0;"/><text fill="#000000" font-family="sans-serif" font-size="11" lengthAdjust="spacingAndGlyphs" textLength="145" x="89" y="307.5">GameRegistry(Mastermind)</text><polygon fill="#4177AF" points="80,312.8203,76,318.8203,84,318.8203" style="stroke: #1963A0; stroke-width: 1.0;"/><text fill="#000000" font-family="sans-serif" font-size="11" lengthAdjust="spacingAndGlyphs" textLength="79" x="89" y="320.4551">register(): void</text><polygon fill="#4177AF" points="80,325.7754,76,331.7754,84,331.7754" style="stroke: #1963A0; stroke-width: 1.0;"/><text fill="#000000" font-family="sans-serif" font-size="11" lengthAdjust="spacingAndGlyphs" textLength="65" x="89" y="333.4102">undo(): void</text><polygon fill="#4177AF" points="80,338.7305,76,344.7305,84,344.7305" style="stroke: #1963A0; stroke-width: 1.0;"/><text fill="#000000" font-family="sans-serif" font-size="11" lengthAdjust="spacingAndGlyphs" textLength="62" x="89" y="346.3652">redo(): void</text><polygon fill="#4177AF" points="80,351.6855,76,357.6855,84,357.6855" style="stroke: #1963A0; stroke-width: 1.0;"/><text fill="#000000" font-family="sans-serif" font-size="11" lengthAdjust="spacingAndGlyphs" textLength="117" x="89" y="359.3203">isUndoable(): boolean</text><polygon fill="#4177AF" points="80,364.6406,76,370.6406,84,370.6406" style="stroke: #1963A0; stroke-width: 1.0;"/><text fill="#000000" font-family="sans-serif" font-size="11" lengthAdjust="spacingAndGlyphs" textLength="115" x="89" y="372.2754">isRedoable(): boolean</text><!--MD5=[3fa5b68df7c2e74eea52f74658e5066a]
class mastermind.models.State--><rect fill="#FEFECE" filter="url(#fvake5bkbkcpj)" height="48" id="mastermind.models.State" style="stroke: #A80036; stroke-width: 1.5;" width="60" x="308" y="272.5"/><ellipse cx="323" cy="288.5" fill="#ADD1B2" rx="11" ry="11" style="stroke: #A80036; stroke-width: 1.0;"/><path d="M325.4731,294.6431 Q324.8921,294.9419 324.2529,295.0913 Q323.6138,295.2407 322.9082,295.2407 Q320.4014,295.2407 319.0815,293.5889 Q317.7617,291.937 317.7617,288.8159 Q317.7617,285.6865 319.0815,284.0347 Q320.4014,282.3828 322.9082,282.3828 Q323.6138,282.3828 324.2612,282.5322 Q324.9087,282.6816 325.4731,282.9805 L325.4731,285.7031 Q324.8423,285.1221 324.2488,284.8523 Q323.6553,284.5825 323.0244,284.5825 Q321.6797,284.5825 320.9949,285.6492 Q320.3101,286.7158 320.3101,288.8159 Q320.3101,290.9077 320.9949,291.9744 Q321.6797,293.041 323.0244,293.041 Q323.6553,293.041 324.2488,292.7712 Q324.8423,292.5015 325.4731,291.9204 Z "/><text fill="#000000" font-family="sans-serif" font-size="12" lengthAdjust="spacingAndGlyphs" textLength="28" x="337" y="293.0352">State</text><line style="stroke: #A80036; stroke-width: 1.5;" x1="309" x2="367" y1="304.5" y2="304.5"/><line style="stroke: #A80036; stroke-width: 1.5;" x1="309" x2="367" y1="312.5" y2="312.5"/><!--MD5=[8795d5456684453124db197e889f65cc]
class mastermind.models.GameMemento--><rect codeLine="41" fill="#FEFECE" filter="url(#fvake5bkbkcpj)" height="99.8203" id="mastermind.models.GameMemento" style="stroke: #A80036; stroke-width: 1.5;" width="336" x="67" y="573"/><ellipse cx="187.25" cy="589" fill="#ADD1B2" rx="11" ry="11" style="stroke: #A80036; stroke-width: 1.0;"/><path d="M189.7231,595.1431 Q189.1421,595.4419 188.5029,595.5913 Q187.8638,595.7407 187.1582,595.7407 Q184.6514,595.7407 183.3315,594.0889 Q182.0117,592.437 182.0117,589.3159 Q182.0117,586.1865 183.3315,584.5347 Q184.6514,582.8828 187.1582,582.8828 Q187.8638,582.8828 188.5112,583.0322 Q189.1587,583.1816 189.7231,583.4805 L189.7231,586.2031 Q189.0923,585.6221 188.4988,585.3523 Q187.9053,585.0825 187.2744,585.0825 Q185.9297,585.0825 185.2449,586.1492 Q184.5601,587.2158 184.5601,589.3159 Q184.5601,591.4077 185.2449,592.4744 Q185.9297,593.541 187.2744,593.541 Q187.9053,593.541 188.4988,593.2712 Q189.0923,593.0015 189.7231,592.4204 Z "/><text fill="#000000" font-family="sans-serif" font-size="12" lengthAdjust="spacingAndGlyphs" textLength="87" x="207.75" y="593.5352">GameMemento</text><line style="stroke: #A80036; stroke-width: 1.5;" x1="68" x2="402" y1="605" y2="605"/><rect fill="none" height="6" style="stroke: #C82930; stroke-width: 1.0;" width="6" x="75" y="613"/><text fill="#000000" font-family="sans-serif" font-size="11" lengthAdjust="spacingAndGlyphs" textLength="290" x="87" y="619.6348">proposedCombinations: List&lt;ProposedCombination&gt;</text><rect fill="none" height="6" style="stroke: #C82930; stroke-width: 1.0;" width="6" x="75" y="625.9551"/><text fill="#000000" font-family="sans-serif" font-size="11" lengthAdjust="spacingAndGlyphs" textLength="113" x="87" y="632.5898">results: List&lt;Result&gt;</text><rect fill="none" height="6" style="stroke: #C82930; stroke-width: 1.0;" width="6" x="75" y="638.9102"/><text fill="#000000" font-family="sans-serif" font-size="11" lengthAdjust="spacingAndGlyphs" textLength="67" x="87" y="645.5449">attempts: int</text><line style="stroke: #A80036; stroke-width: 1.5;" x1="68" x2="402" y1="651.8652" y2="651.8652"/><polygon fill="#4177AF" points="78,658.8652,74,664.8652,82,664.8652" style="stroke: #1963A0; stroke-width: 1.0;"/><text fill="#000000" font-family="sans-serif" font-size="11" lengthAdjust="spacingAndGlyphs" textLength="310" x="87" y="666.5">GameMemento(proposedCombinations, results, attempts)</text><!--MD5=[01672a9ab6554fc22f1348130fed7699]
link mastermind.models.Session to mastermind.models.StateValue--><path codeLine="8" d="M420.2371,146.4139 C420.2371,146.4139 435.97,227.93 442.02,259.33 " fill="none" id="mastermind.models.Session-mastermind.models.StateValue" style="stroke: #A80036; stroke-width: 1.0;"/><polygon fill="#A80036" points="444.51,272.24,446.7273,262.644,443.5601,267.3311,438.873,264.1639,444.51,272.24" style="stroke: #A80036; stroke-width: 1.0;"/><line style="stroke: #A80036; stroke-width: 1.0;" x1="443.5601" x2="442.05" y1="267.3311" y2="259.475"/><polygon fill="#A80036" points="417.97,134.63,415.1756,141.2777,420.2371,146.4139,423.0315,139.7662,417.97,134.63" style="stroke: #A80036; stroke-width: 1.0;"/><!--MD5=[636c28c3d1175883b989215424fd04a0]
link mastermind.models.InMemorySession to mastermind.models.Mastermind--><path codeLine="17" d="M86.0575,162.8375 C86.0575,162.8375 58.85,195.56 51,214 C22.29,281.48 25.62,310.2 51,379 C57.72,397.21 69.6,414.31 82.27,428.89 " fill="none" id="mastermind.models.InMemorySession-mastermind.models.Mastermind" style="stroke: #A80036; stroke-width: 1.0;"/><polygon fill="#A80036" points="91.12,438.56,87.9953,429.22,87.7446,434.8713,82.0933,434.6206,91.12,438.56" style="stroke: #A80036; stroke-width: 1.0;"/><line style="stroke: #A80036; stroke-width: 1.0;" x1="87.7446" x2="82.345" y1="434.8713" y2="428.97"/><polygon fill="#A80036" points="94.47,154.28,87.4113,155.7546,86.0575,162.8375,93.1163,161.3629,94.47,154.28" style="stroke: #A80036; stroke-width: 1.0;"/><!--MD5=[2e364337ddfdf7e192f1f33458b58ffb]
link mastermind.models.InMemorySession to mastermind.models.GameRegistry--><path codeLine="18" d="M171,166.16 C171,166.16 171,189.59 171,200.79 " fill="none" id="mastermind.models.InMemorySession-mastermind.models.GameRegistry" style="stroke: #A80036; stroke-width: 1.0;"/><polygon fill="#A80036" points="171,213.87,175,204.87,171,208.87,167,204.87,171,213.87" style="stroke: #A80036; stroke-width: 1.0;"/><line style="stroke: #A80036; stroke-width: 1.0;" x1="171" x2="171" y1="208.87" y2="200.87"/><polygon fill="#A80036" points="171,154.16,167,160.16,171,166.16,175,160.16,171,154.16" style="stroke: #A80036; stroke-width: 1.0;"/><!--MD5=[dc02dab06a2d200c15433d15eaca8ee0]
link mastermind.models.InMemorySession to mastermind.models.State--><path codeLine="19" d="M244.1055,162.5023 C244.1055,162.5023 277.3,196.48 291,214 C302.16,228.27 312.48,245.48 320.58,260.4 " fill="none" id="mastermind.models.InMemorySession-mastermind.models.State" style="stroke: #A80036; stroke-width: 1.0;"/><polygon fill="#A80036" points="326.84,272.28,326.1754,262.4536,324.5056,267.8584,319.1008,266.1886,326.84,272.28" style="stroke: #A80036; stroke-width: 1.0;"/><line style="stroke: #A80036; stroke-width: 1.0;" x1="324.5056" x2="320.785" y1="267.8584" y2="260.775"/><polygon fill="#A80036" points="235.47,154.17,237.0103,161.2147,244.1055,162.5023,242.5652,155.4576,235.47,154.17" style="stroke: #A80036; stroke-width: 1.0;"/><!--MD5=[57c3a32a142776dd56b77335682f187e]
link mastermind.models.GameRegistry to mastermind.models.GameMemento--><path codeLine="32" d="M232.0376,390.0318 C232.0376,390.0318 246.74,422.8 251,439 C261.33,478.25 257.43,523.69 250.91,559.47 " fill="none" id="mastermind.models.GameRegistry-mastermind.models.GameMemento" style="stroke: #A80036; stroke-width: 1.0;"/><polygon fill="#A80036" points="248.3,572.68,253.9648,564.6233,249.2668,567.7744,246.1158,563.0764,248.3,572.68" style="stroke: #A80036; stroke-width: 1.0;"/><line style="stroke: #A80036; stroke-width: 1.0;" x1="249.2668" x2="250.815" y1="567.7744" y2="559.93"/><polygon fill="#A80036" points="226.55,379.36,225.7365,386.5251,232.0376,390.0318,232.851,382.8667,226.55,379.36" style="stroke: #A80036; stroke-width: 1.0;"/><!--MD5=[00e8ba2d40c9142de198dbcaa206f2be]
link mastermind.models.GameRegistry to mastermind.models.Mastermind--><path codeLine="33" d="M153.5,379.24 C149.44,398.2 145.29,417.6 141.79,433.93 " fill="none" id="mastermind.models.GameRegistry-to-mastermind.models.Mastermind" style="stroke: #A80036; stroke-width: 1.0;"/><polygon fill="#A80036" points="140.73,438.89,146.5206,430.9233,141.7737,434.0002,138.6969,429.2533,140.73,438.89" style="stroke: #A80036; stroke-width: 1.0;"/><!--MD5=[d02783b32226aa40f9080ec2ff1d5f4c]
link mastermind.models.Mastermind to mastermind.models.GameMemento--><path codeLine="39" d="M158.48,513.22 C170.27,529.98 184.52,550.24 197.51,568.7 " fill="none" id="mastermind.models.Mastermind-to-mastermind.models.GameMemento" style="stroke: #A80036; stroke-width: 1.0; stroke-dasharray: 7.0,7.0;"/><polygon fill="#A80036" points="200.43,572.86,198.521,563.1979,197.5522,568.7712,191.9789,567.8024,200.43,572.86" style="stroke: #A80036; stroke-width: 1.0;"/><!--MD5=[e640b78e6104d68882415087b795de8b]
@startuml

top to bottom direction

interface mastermind.models.Session {
    + Session()
    + {abstract} getValueState(): StateValue
}
mastermind.models.Session *- -> mastermind.models.StateValue

class mastermind.models.InMemorySession {
    - mastermind: Mastermind
    - registry: GameRegistry
    - state: State
    + InMemorySession()
    + getValueState(): StateValue
}
mastermind.models.InMemorySession *- -> mastermind.models.Mastermind
mastermind.models.InMemorySession *- -> mastermind.models.GameRegistry
mastermind.models.InMemorySession *- -> mastermind.models.State

class mastermind.models.GameRegistry {
   - mementos: List<GameMemento>
   - mastermind: Mastermind
   - actualIndex: int
   ~ GameRegistry(Mastermind)
   ~ register(): void
   ~ undo(): void
   ~ redo(): void
   ~ isUndoable(): boolean
   ~ isRedoable(): boolean
}
mastermind.models.GameRegistry *- -> mastermind.models.GameMemento
mastermind.models.GameRegistry - -> mastermind.models.Mastermind

class mastermind.models.Mastermind {
   ~ createMemento(): GameMemento
   ~ restore(GameMemento): void
}
mastermind.models.Mastermind ..> mastermind.models.GameMemento

class mastermind.models.GameMemento {
   - proposedCombinations: List<ProposedCombination>
   - results: List<Result>
   - attempts: int
   ~ GameMemento(proposedCombinations, results, attempts)
}

@enduml

PlantUML version 1.2020.19(Mon Oct 12 17:10:01 CEST 2020)
(GPL source distribution)
Java Runtime: Java(TM) SE Runtime Environment
JVM: Java HotSpot(TM) 64-Bit Server VM
Default Encoding: UTF-8
Language: es
Country: ES
--></g></svg>